{
	"patcher" : 	{
		"fileversion" : 1,
		"rect" : [ 128.0, 113.0, 857.0, 559.0 ],
		"bglocked" : 0,
		"defrect" : [ 128.0, 113.0, 857.0, 559.0 ],
		"openrect" : [ 0.0, 0.0, 0.0, 0.0 ],
		"openinpresentation" : 0,
		"default_fontsize" : 12.0,
		"default_fontface" : 0,
		"default_fontname" : "Arial",
		"gridonopen" : 0,
		"gridsize" : [ 15.0, 15.0 ],
		"gridsnaponopen" : 0,
		"toolbarvisible" : 1,
		"boxanimatetime" : 200,
		"imprint" : 0,
		"boxes" : [ 			{
				"box" : 				{
					"maxclass" : "newobj",
					"text" : "r gravarseriecomamp1",
					"numoutlets" : 1,
					"outlettype" : [ "" ],
					"fontname" : "Arial",
					"patching_rect" : [ 302.0, 80.0, 131.0, 20.0 ],
					"id" : "obj-28",
					"fontsize" : 12.0,
					"color" : [ 0.87451, 0.25098, 0.717647, 1.0 ],
					"numinlets" : 0
				}

			}
, 			{
				"box" : 				{
					"maxclass" : "newobj",
					"text" : "send listaamp",
					"numoutlets" : 0,
					"fontname" : "Arial",
					"patching_rect" : [ 179.0, 404.0, 85.0, 20.0 ],
					"id" : "obj-16",
					"fontsize" : 12.0,
					"color" : [ 0.87451, 0.25098, 0.717647, 1.0 ],
					"numinlets" : 1
				}

			}
, 			{
				"box" : 				{
					"maxclass" : "message",
					"text" : "0. 0. 1. 1. 0. 0. 0. 0. 0. 0. 0. 1. 0. 0. 0. 0. 0. 0. 0. 0.",
					"numoutlets" : 1,
					"outlettype" : [ "" ],
					"fontname" : "Arial",
					"patching_rect" : [ 274.0, 396.0, 354.0, 18.0 ],
					"id" : "obj-15",
					"fontsize" : 12.0,
					"numinlets" : 2
				}

			}
, 			{
				"box" : 				{
					"maxclass" : "newobj",
					"text" : "t b b b b b b b b b b b b b b b b b b b b",
					"numoutlets" : 20,
					"outlettype" : [ "bang", "bang", "bang", "bang", "bang", "bang", "bang", "bang", "bang", "bang", "bang", "bang", "bang", "bang", "bang", "bang", "bang", "bang", "bang", "bang" ],
					"fontname" : "Arial",
					"patching_rect" : [ 302.0, 118.0, 275.5, 20.0 ],
					"id" : "obj-53",
					"fontsize" : 12.0,
					"numinlets" : 1
				}

			}
, 			{
				"box" : 				{
					"maxclass" : "newobj",
					"text" : "f",
					"numoutlets" : 1,
					"outlettype" : [ "float" ],
					"fontname" : "Arial",
					"patching_rect" : [ 765.0, 299.0, 30.0, 17.0 ],
					"id" : "obj-8",
					"fontsize" : 9.0,
					"numinlets" : 2
				}

			}
, 			{
				"box" : 				{
					"maxclass" : "newobj",
					"text" : "f",
					"numoutlets" : 1,
					"outlettype" : [ "float" ],
					"fontname" : "Arial",
					"patching_rect" : [ 707.0, 299.0, 30.0, 17.0 ],
					"id" : "obj-9",
					"fontsize" : 9.0,
					"numinlets" : 2
				}

			}
, 			{
				"box" : 				{
					"maxclass" : "newobj",
					"text" : "f",
					"numoutlets" : 1,
					"outlettype" : [ "float" ],
					"fontname" : "Arial",
					"patching_rect" : [ 660.0, 299.0, 30.0, 17.0 ],
					"id" : "obj-1",
					"fontsize" : 9.0,
					"numinlets" : 2
				}

			}
, 			{
				"box" : 				{
					"maxclass" : "newobj",
					"text" : "f",
					"numoutlets" : 1,
					"outlettype" : [ "float" ],
					"fontname" : "Arial",
					"patching_rect" : [ 607.0, 299.0, 30.0, 17.0 ],
					"id" : "obj-3",
					"fontsize" : 9.0,
					"numinlets" : 2
				}

			}
, 			{
				"box" : 				{
					"maxclass" : "newobj",
					"text" : "f",
					"numoutlets" : 1,
					"outlettype" : [ "float" ],
					"fontname" : "Arial",
					"patching_rect" : [ 557.0, 299.0, 30.0, 17.0 ],
					"id" : "obj-4",
					"fontsize" : 9.0,
					"numinlets" : 2
				}

			}
, 			{
				"box" : 				{
					"maxclass" : "newobj",
					"text" : "f",
					"numoutlets" : 1,
					"outlettype" : [ "float" ],
					"fontname" : "Arial",
					"patching_rect" : [ 506.0, 299.0, 30.0, 17.0 ],
					"id" : "obj-5",
					"fontsize" : 9.0,
					"numinlets" : 2
				}

			}
, 			{
				"box" : 				{
					"maxclass" : "newobj",
					"text" : "f",
					"numoutlets" : 1,
					"outlettype" : [ "float" ],
					"fontname" : "Arial",
					"patching_rect" : [ 460.0, 299.0, 30.0, 17.0 ],
					"id" : "obj-6",
					"fontsize" : 9.0,
					"numinlets" : 2
				}

			}
, 			{
				"box" : 				{
					"maxclass" : "newobj",
					"text" : "f",
					"numoutlets" : 1,
					"outlettype" : [ "float" ],
					"fontname" : "Arial",
					"patching_rect" : [ 413.0, 299.0, 30.0, 17.0 ],
					"id" : "obj-7",
					"fontsize" : 9.0,
					"numinlets" : 2
				}

			}
, 			{
				"box" : 				{
					"maxclass" : "newobj",
					"text" : "f",
					"numoutlets" : 1,
					"outlettype" : [ "float" ],
					"fontname" : "Arial",
					"patching_rect" : [ 363.0, 299.0, 30.0, 17.0 ],
					"id" : "obj-84",
					"fontsize" : 9.0,
					"numinlets" : 2
				}

			}
, 			{
				"box" : 				{
					"maxclass" : "newobj",
					"text" : "f",
					"numoutlets" : 1,
					"outlettype" : [ "float" ],
					"fontname" : "Arial",
					"patching_rect" : [ 317.0, 299.0, 30.0, 17.0 ],
					"id" : "obj-85",
					"fontsize" : 9.0,
					"numinlets" : 2
				}

			}
, 			{
				"box" : 				{
					"maxclass" : "newobj",
					"text" : "f",
					"numoutlets" : 1,
					"outlettype" : [ "float" ],
					"fontname" : "Arial",
					"patching_rect" : [ 785.0, 227.0, 30.0, 17.0 ],
					"id" : "obj-86",
					"fontsize" : 9.0,
					"numinlets" : 2
				}

			}
, 			{
				"box" : 				{
					"maxclass" : "newobj",
					"text" : "f",
					"numoutlets" : 1,
					"outlettype" : [ "float" ],
					"fontname" : "Arial",
					"patching_rect" : [ 738.0, 227.0, 30.0, 17.0 ],
					"id" : "obj-87",
					"fontsize" : 9.0,
					"numinlets" : 2
				}

			}
, 			{
				"box" : 				{
					"maxclass" : "newobj",
					"text" : "f",
					"numoutlets" : 1,
					"outlettype" : [ "float" ],
					"fontname" : "Arial",
					"patching_rect" : [ 692.0, 227.0, 30.0, 17.0 ],
					"id" : "obj-88",
					"fontsize" : 9.0,
					"numinlets" : 2
				}

			}
, 			{
				"box" : 				{
					"maxclass" : "newobj",
					"text" : "f",
					"numoutlets" : 1,
					"outlettype" : [ "float" ],
					"fontname" : "Arial",
					"patching_rect" : [ 651.0, 227.0, 30.0, 17.0 ],
					"id" : "obj-89",
					"fontsize" : 9.0,
					"numinlets" : 2
				}

			}
, 			{
				"box" : 				{
					"maxclass" : "newobj",
					"text" : "f",
					"numoutlets" : 1,
					"outlettype" : [ "float" ],
					"fontname" : "Arial",
					"patching_rect" : [ 605.0, 227.0, 30.0, 17.0 ],
					"id" : "obj-90",
					"fontsize" : 9.0,
					"numinlets" : 2
				}

			}
, 			{
				"box" : 				{
					"maxclass" : "newobj",
					"text" : "f",
					"numoutlets" : 1,
					"outlettype" : [ "float" ],
					"fontname" : "Arial",
					"patching_rect" : [ 558.0, 227.0, 30.0, 17.0 ],
					"id" : "obj-91",
					"fontsize" : 9.0,
					"numinlets" : 2
				}

			}
, 			{
				"box" : 				{
					"maxclass" : "newobj",
					"text" : "f",
					"numoutlets" : 1,
					"outlettype" : [ "float" ],
					"fontname" : "Arial",
					"patching_rect" : [ 495.0, 227.0, 30.0, 17.0 ],
					"id" : "obj-92",
					"fontsize" : 9.0,
					"numinlets" : 2
				}

			}
, 			{
				"box" : 				{
					"maxclass" : "newobj",
					"text" : "f",
					"numoutlets" : 1,
					"outlettype" : [ "float" ],
					"fontname" : "Arial",
					"patching_rect" : [ 436.0, 227.0, 30.0, 17.0 ],
					"id" : "obj-93",
					"fontsize" : 9.0,
					"numinlets" : 2
				}

			}
, 			{
				"box" : 				{
					"maxclass" : "newobj",
					"text" : "f",
					"numoutlets" : 1,
					"outlettype" : [ "float" ],
					"fontname" : "Arial",
					"patching_rect" : [ 375.0, 227.0, 30.0, 17.0 ],
					"id" : "obj-94",
					"fontsize" : 9.0,
					"numinlets" : 2
				}

			}
, 			{
				"box" : 				{
					"maxclass" : "newobj",
					"text" : "f",
					"numoutlets" : 1,
					"outlettype" : [ "float" ],
					"fontname" : "Arial",
					"patching_rect" : [ 302.0, 227.0, 30.0, 17.0 ],
					"id" : "obj-95",
					"fontsize" : 9.0,
					"numinlets" : 2
				}

			}
, 			{
				"box" : 				{
					"maxclass" : "newobj",
					"text" : "zl group 20",
					"numoutlets" : 2,
					"outlettype" : [ "", "" ],
					"fontname" : "Arial",
					"patching_rect" : [ 179.0, 345.0, 70.0, 20.0 ],
					"id" : "obj-82",
					"fontsize" : 12.0,
					"numinlets" : 2
				}

			}
, 			{
				"box" : 				{
					"maxclass" : "newobj",
					"text" : "r amp20",
					"numoutlets" : 1,
					"outlettype" : [ "" ],
					"fontname" : "Arial",
					"patching_rect" : [ 776.0, 262.0, 44.0, 17.0 ],
					"id" : "obj-69",
					"fontsize" : 9.0,
					"color" : [ 0.87451, 0.25098, 0.717647, 1.0 ],
					"numinlets" : 0
				}

			}
, 			{
				"box" : 				{
					"maxclass" : "newobj",
					"text" : "r amp19",
					"numoutlets" : 1,
					"outlettype" : [ "" ],
					"fontname" : "Arial",
					"patching_rect" : [ 718.0, 262.0, 44.0, 17.0 ],
					"id" : "obj-70",
					"fontsize" : 9.0,
					"color" : [ 0.87451, 0.25098, 0.717647, 1.0 ],
					"numinlets" : 0
				}

			}
, 			{
				"box" : 				{
					"maxclass" : "newobj",
					"text" : "r amp18",
					"numoutlets" : 1,
					"outlettype" : [ "" ],
					"fontname" : "Arial",
					"patching_rect" : [ 671.0, 262.0, 44.0, 17.0 ],
					"id" : "obj-71",
					"fontsize" : 9.0,
					"color" : [ 0.87451, 0.25098, 0.717647, 1.0 ],
					"numinlets" : 0
				}

			}
, 			{
				"box" : 				{
					"maxclass" : "newobj",
					"text" : "r amp17",
					"numoutlets" : 1,
					"outlettype" : [ "" ],
					"fontname" : "Arial",
					"patching_rect" : [ 618.0, 262.0, 44.0, 17.0 ],
					"id" : "obj-73",
					"fontsize" : 9.0,
					"color" : [ 0.87451, 0.25098, 0.717647, 1.0 ],
					"numinlets" : 0
				}

			}
, 			{
				"box" : 				{
					"maxclass" : "newobj",
					"text" : "r amp16",
					"numoutlets" : 1,
					"outlettype" : [ "" ],
					"fontname" : "Arial",
					"patching_rect" : [ 568.0, 262.0, 44.0, 17.0 ],
					"id" : "obj-74",
					"fontsize" : 9.0,
					"color" : [ 0.87451, 0.25098, 0.717647, 1.0 ],
					"numinlets" : 0
				}

			}
, 			{
				"box" : 				{
					"maxclass" : "newobj",
					"text" : "r amp15",
					"numoutlets" : 1,
					"outlettype" : [ "" ],
					"fontname" : "Arial",
					"patching_rect" : [ 517.0, 262.0, 44.0, 17.0 ],
					"id" : "obj-75",
					"fontsize" : 9.0,
					"color" : [ 0.87451, 0.25098, 0.717647, 1.0 ],
					"numinlets" : 0
				}

			}
, 			{
				"box" : 				{
					"maxclass" : "newobj",
					"text" : "r amp14",
					"numoutlets" : 1,
					"outlettype" : [ "" ],
					"fontname" : "Arial",
					"patching_rect" : [ 471.0, 262.0, 44.0, 17.0 ],
					"id" : "obj-78",
					"fontsize" : 9.0,
					"color" : [ 0.87451, 0.25098, 0.717647, 1.0 ],
					"numinlets" : 0
				}

			}
, 			{
				"box" : 				{
					"maxclass" : "newobj",
					"text" : "r amp13",
					"numoutlets" : 1,
					"outlettype" : [ "" ],
					"fontname" : "Arial",
					"patching_rect" : [ 424.0, 262.0, 44.0, 17.0 ],
					"id" : "obj-79",
					"fontsize" : 9.0,
					"color" : [ 0.87451, 0.25098, 0.717647, 1.0 ],
					"numinlets" : 0
				}

			}
, 			{
				"box" : 				{
					"maxclass" : "newobj",
					"text" : "r amp12",
					"numoutlets" : 1,
					"outlettype" : [ "" ],
					"fontname" : "Arial",
					"patching_rect" : [ 374.0, 262.0, 44.0, 17.0 ],
					"id" : "obj-80",
					"fontsize" : 9.0,
					"color" : [ 0.87451, 0.25098, 0.717647, 1.0 ],
					"numinlets" : 0
				}

			}
, 			{
				"box" : 				{
					"maxclass" : "newobj",
					"text" : "r amp11",
					"numoutlets" : 1,
					"outlettype" : [ "" ],
					"fontname" : "Arial",
					"patching_rect" : [ 328.0, 262.0, 44.0, 17.0 ],
					"id" : "obj-81",
					"fontsize" : 9.0,
					"color" : [ 0.87451, 0.25098, 0.717647, 1.0 ],
					"numinlets" : 0
				}

			}
, 			{
				"box" : 				{
					"maxclass" : "newobj",
					"text" : "r amp9",
					"numoutlets" : 1,
					"outlettype" : [ "" ],
					"fontname" : "Arial",
					"patching_rect" : [ 749.0, 199.0, 39.0, 17.0 ],
					"id" : "obj-67",
					"fontsize" : 9.0,
					"color" : [ 0.87451, 0.25098, 0.717647, 1.0 ],
					"numinlets" : 0
				}

			}
, 			{
				"box" : 				{
					"maxclass" : "newobj",
					"text" : "r amp8",
					"numoutlets" : 1,
					"outlettype" : [ "" ],
					"fontname" : "Arial",
					"patching_rect" : [ 703.0, 199.0, 39.0, 17.0 ],
					"id" : "obj-68",
					"fontsize" : 9.0,
					"color" : [ 0.87451, 0.25098, 0.717647, 1.0 ],
					"numinlets" : 0
				}

			}
, 			{
				"box" : 				{
					"maxclass" : "newobj",
					"text" : "r amp7",
					"numoutlets" : 1,
					"outlettype" : [ "" ],
					"fontname" : "Arial",
					"patching_rect" : [ 662.0, 199.0, 39.0, 17.0 ],
					"id" : "obj-60",
					"fontsize" : 9.0,
					"color" : [ 0.87451, 0.25098, 0.717647, 1.0 ],
					"numinlets" : 0
				}

			}
, 			{
				"box" : 				{
					"maxclass" : "newobj",
					"text" : "r amp6",
					"numoutlets" : 1,
					"outlettype" : [ "" ],
					"fontname" : "Arial",
					"patching_rect" : [ 616.0, 199.0, 39.0, 17.0 ],
					"id" : "obj-61",
					"fontsize" : 9.0,
					"color" : [ 0.87451, 0.25098, 0.717647, 1.0 ],
					"numinlets" : 0
				}

			}
, 			{
				"box" : 				{
					"maxclass" : "newobj",
					"text" : "r amp5",
					"numoutlets" : 1,
					"outlettype" : [ "" ],
					"fontname" : "Arial",
					"patching_rect" : [ 569.0, 199.0, 39.0, 17.0 ],
					"id" : "obj-62",
					"fontsize" : 9.0,
					"color" : [ 0.87451, 0.25098, 0.717647, 1.0 ],
					"numinlets" : 0
				}

			}
, 			{
				"box" : 				{
					"maxclass" : "newobj",
					"text" : "r amp4",
					"numoutlets" : 1,
					"outlettype" : [ "" ],
					"fontname" : "Arial",
					"patching_rect" : [ 506.0, 199.0, 39.0, 17.0 ],
					"id" : "obj-64",
					"fontsize" : 9.0,
					"color" : [ 0.87451, 0.25098, 0.717647, 1.0 ],
					"numinlets" : 0
				}

			}
, 			{
				"box" : 				{
					"maxclass" : "newobj",
					"text" : "r amp10",
					"numoutlets" : 1,
					"outlettype" : [ "" ],
					"fontname" : "Arial",
					"patching_rect" : [ 796.0, 199.0, 44.0, 17.0 ],
					"id" : "obj-58",
					"fontsize" : 9.0,
					"color" : [ 0.87451, 0.25098, 0.717647, 1.0 ],
					"numinlets" : 0
				}

			}
, 			{
				"box" : 				{
					"maxclass" : "newobj",
					"text" : "r amp3",
					"numoutlets" : 1,
					"outlettype" : [ "" ],
					"fontname" : "Arial",
					"patching_rect" : [ 447.0, 199.0, 39.0, 17.0 ],
					"id" : "obj-59",
					"fontsize" : 9.0,
					"color" : [ 0.87451, 0.25098, 0.717647, 1.0 ],
					"numinlets" : 0
				}

			}
, 			{
				"box" : 				{
					"maxclass" : "newobj",
					"text" : "r amp2",
					"numoutlets" : 1,
					"outlettype" : [ "" ],
					"fontname" : "Arial",
					"patching_rect" : [ 386.0, 199.0, 39.0, 17.0 ],
					"id" : "obj-57",
					"fontsize" : 9.0,
					"color" : [ 0.87451, 0.25098, 0.717647, 1.0 ],
					"numinlets" : 0
				}

			}
, 			{
				"box" : 				{
					"maxclass" : "newobj",
					"text" : "r amp1",
					"numoutlets" : 1,
					"outlettype" : [ "" ],
					"fontname" : "Arial",
					"patching_rect" : [ 313.0, 199.0, 39.0, 17.0 ],
					"id" : "obj-2",
					"fontsize" : 9.0,
					"color" : [ 0.87451, 0.25098, 0.717647, 1.0 ],
					"numinlets" : 0
				}

			}
 ],
		"lines" : [ 			{
				"patchline" : 				{
					"source" : [ "obj-28", 0 ],
					"destination" : [ "obj-53", 0 ],
					"hidden" : 0,
					"midpoints" : [  ]
				}

			}
, 			{
				"patchline" : 				{
					"source" : [ "obj-2", 0 ],
					"destination" : [ "obj-95", 1 ],
					"hidden" : 0,
					"midpoints" : [  ]
				}

			}
, 			{
				"patchline" : 				{
					"source" : [ "obj-57", 0 ],
					"destination" : [ "obj-94", 1 ],
					"hidden" : 0,
					"midpoints" : [  ]
				}

			}
, 			{
				"patchline" : 				{
					"source" : [ "obj-59", 0 ],
					"destination" : [ "obj-93", 1 ],
					"hidden" : 0,
					"midpoints" : [  ]
				}

			}
, 			{
				"patchline" : 				{
					"source" : [ "obj-64", 0 ],
					"destination" : [ "obj-92", 1 ],
					"hidden" : 0,
					"midpoints" : [  ]
				}

			}
, 			{
				"patchline" : 				{
					"source" : [ "obj-62", 0 ],
					"destination" : [ "obj-91", 1 ],
					"hidden" : 0,
					"midpoints" : [  ]
				}

			}
, 			{
				"patchline" : 				{
					"source" : [ "obj-61", 0 ],
					"destination" : [ "obj-90", 1 ],
					"hidden" : 0,
					"midpoints" : [  ]
				}

			}
, 			{
				"patchline" : 				{
					"source" : [ "obj-60", 0 ],
					"destination" : [ "obj-89", 1 ],
					"hidden" : 0,
					"midpoints" : [  ]
				}

			}
, 			{
				"patchline" : 				{
					"source" : [ "obj-68", 0 ],
					"destination" : [ "obj-88", 1 ],
					"hidden" : 0,
					"midpoints" : [  ]
				}

			}
, 			{
				"patchline" : 				{
					"source" : [ "obj-67", 0 ],
					"destination" : [ "obj-87", 1 ],
					"hidden" : 0,
					"midpoints" : [  ]
				}

			}
, 			{
				"patchline" : 				{
					"source" : [ "obj-58", 0 ],
					"destination" : [ "obj-86", 1 ],
					"hidden" : 0,
					"midpoints" : [  ]
				}

			}
, 			{
				"patchline" : 				{
					"source" : [ "obj-81", 0 ],
					"destination" : [ "obj-85", 1 ],
					"hidden" : 0,
					"midpoints" : [  ]
				}

			}
, 			{
				"patchline" : 				{
					"source" : [ "obj-80", 0 ],
					"destination" : [ "obj-84", 1 ],
					"hidden" : 0,
					"midpoints" : [  ]
				}

			}
, 			{
				"patchline" : 				{
					"source" : [ "obj-79", 0 ],
					"destination" : [ "obj-7", 1 ],
					"hidden" : 0,
					"midpoints" : [  ]
				}

			}
, 			{
				"patchline" : 				{
					"source" : [ "obj-78", 0 ],
					"destination" : [ "obj-6", 1 ],
					"hidden" : 0,
					"midpoints" : [  ]
				}

			}
, 			{
				"patchline" : 				{
					"source" : [ "obj-75", 0 ],
					"destination" : [ "obj-5", 1 ],
					"hidden" : 0,
					"midpoints" : [  ]
				}

			}
, 			{
				"patchline" : 				{
					"source" : [ "obj-74", 0 ],
					"destination" : [ "obj-4", 1 ],
					"hidden" : 0,
					"midpoints" : [  ]
				}

			}
, 			{
				"patchline" : 				{
					"source" : [ "obj-73", 0 ],
					"destination" : [ "obj-3", 1 ],
					"hidden" : 0,
					"midpoints" : [  ]
				}

			}
, 			{
				"patchline" : 				{
					"source" : [ "obj-71", 0 ],
					"destination" : [ "obj-1", 1 ],
					"hidden" : 0,
					"midpoints" : [  ]
				}

			}
, 			{
				"patchline" : 				{
					"source" : [ "obj-70", 0 ],
					"destination" : [ "obj-9", 1 ],
					"hidden" : 0,
					"midpoints" : [  ]
				}

			}
, 			{
				"patchline" : 				{
					"source" : [ "obj-69", 0 ],
					"destination" : [ "obj-8", 1 ],
					"hidden" : 0,
					"midpoints" : [  ]
				}

			}
, 			{
				"patchline" : 				{
					"source" : [ "obj-53", 19 ],
					"destination" : [ "obj-95", 0 ],
					"hidden" : 0,
					"midpoints" : [ 568.0, 182.0, 311.5, 182.0 ]
				}

			}
, 			{
				"patchline" : 				{
					"source" : [ "obj-53", 18 ],
					"destination" : [ "obj-94", 0 ],
					"hidden" : 0,
					"midpoints" : [ 554.5, 182.0, 384.5, 182.0 ]
				}

			}
, 			{
				"patchline" : 				{
					"source" : [ "obj-53", 17 ],
					"destination" : [ "obj-93", 0 ],
					"hidden" : 0,
					"midpoints" : [ 541.0, 182.0, 445.5, 182.0 ]
				}

			}
, 			{
				"patchline" : 				{
					"source" : [ "obj-53", 16 ],
					"destination" : [ "obj-92", 0 ],
					"hidden" : 0,
					"midpoints" : [ 527.5, 182.0, 504.5, 182.0 ]
				}

			}
, 			{
				"patchline" : 				{
					"source" : [ "obj-53", 15 ],
					"destination" : [ "obj-91", 0 ],
					"hidden" : 0,
					"midpoints" : [ 514.0, 182.0, 567.5, 182.0 ]
				}

			}
, 			{
				"patchline" : 				{
					"source" : [ "obj-53", 14 ],
					"destination" : [ "obj-90", 0 ],
					"hidden" : 0,
					"midpoints" : [ 500.5, 182.0, 614.5, 182.0 ]
				}

			}
, 			{
				"patchline" : 				{
					"source" : [ "obj-53", 13 ],
					"destination" : [ "obj-89", 0 ],
					"hidden" : 0,
					"midpoints" : [ 487.0, 182.0, 660.5, 182.0 ]
				}

			}
, 			{
				"patchline" : 				{
					"source" : [ "obj-53", 12 ],
					"destination" : [ "obj-88", 0 ],
					"hidden" : 0,
					"midpoints" : [ 473.5, 182.0, 701.5, 182.0 ]
				}

			}
, 			{
				"patchline" : 				{
					"source" : [ "obj-53", 11 ],
					"destination" : [ "obj-87", 0 ],
					"hidden" : 0,
					"midpoints" : [ 460.0, 182.0, 747.5, 182.0 ]
				}

			}
, 			{
				"patchline" : 				{
					"source" : [ "obj-53", 10 ],
					"destination" : [ "obj-86", 0 ],
					"hidden" : 0,
					"midpoints" : [ 446.5, 182.0, 794.5, 182.0 ]
				}

			}
, 			{
				"patchline" : 				{
					"source" : [ "obj-53", 9 ],
					"destination" : [ "obj-85", 0 ],
					"hidden" : 0,
					"midpoints" : [ 433.0, 213.5, 326.5, 213.5 ]
				}

			}
, 			{
				"patchline" : 				{
					"source" : [ "obj-53", 8 ],
					"destination" : [ "obj-84", 0 ],
					"hidden" : 0,
					"midpoints" : [ 419.5, 213.5, 372.5, 213.5 ]
				}

			}
, 			{
				"patchline" : 				{
					"source" : [ "obj-53", 7 ],
					"destination" : [ "obj-7", 0 ],
					"hidden" : 0,
					"midpoints" : [ 406.0, 215.0, 422.5, 215.0 ]
				}

			}
, 			{
				"patchline" : 				{
					"source" : [ "obj-53", 6 ],
					"destination" : [ "obj-6", 0 ],
					"hidden" : 0,
					"midpoints" : [ 392.5, 215.0, 469.5, 215.0 ]
				}

			}
, 			{
				"patchline" : 				{
					"source" : [ "obj-53", 5 ],
					"destination" : [ "obj-5", 0 ],
					"hidden" : 0,
					"midpoints" : [ 379.0, 215.0, 515.5, 215.0 ]
				}

			}
, 			{
				"patchline" : 				{
					"source" : [ "obj-53", 4 ],
					"destination" : [ "obj-4", 0 ],
					"hidden" : 0,
					"midpoints" : [ 365.5, 216.0, 566.5, 216.0 ]
				}

			}
, 			{
				"patchline" : 				{
					"source" : [ "obj-53", 3 ],
					"destination" : [ "obj-3", 0 ],
					"hidden" : 0,
					"midpoints" : [ 352.0, 215.0, 616.5, 215.0 ]
				}

			}
, 			{
				"patchline" : 				{
					"source" : [ "obj-53", 2 ],
					"destination" : [ "obj-1", 0 ],
					"hidden" : 0,
					"midpoints" : [ 338.5, 215.0, 669.5, 215.0 ]
				}

			}
, 			{
				"patchline" : 				{
					"source" : [ "obj-53", 1 ],
					"destination" : [ "obj-9", 0 ],
					"hidden" : 0,
					"midpoints" : [ 325.0, 215.0, 716.5, 215.0 ]
				}

			}
, 			{
				"patchline" : 				{
					"source" : [ "obj-53", 0 ],
					"destination" : [ "obj-8", 0 ],
					"hidden" : 0,
					"midpoints" : [ 311.5, 215.0, 774.5, 215.0 ]
				}

			}
, 			{
				"patchline" : 				{
					"source" : [ "obj-95", 0 ],
					"destination" : [ "obj-82", 0 ],
					"hidden" : 0,
					"midpoints" : [ 311.5, 294.0, 188.5, 294.0 ]
				}

			}
, 			{
				"patchline" : 				{
					"source" : [ "obj-94", 0 ],
					"destination" : [ "obj-82", 0 ],
					"hidden" : 0,
					"midpoints" : [ 384.5, 294.0, 188.5, 294.0 ]
				}

			}
, 			{
				"patchline" : 				{
					"source" : [ "obj-93", 0 ],
					"destination" : [ "obj-82", 0 ],
					"hidden" : 0,
					"midpoints" : [ 445.5, 294.0, 188.5, 294.0 ]
				}

			}
, 			{
				"patchline" : 				{
					"source" : [ "obj-92", 0 ],
					"destination" : [ "obj-82", 0 ],
					"hidden" : 0,
					"midpoints" : [ 504.5, 294.0, 188.5, 294.0 ]
				}

			}
, 			{
				"patchline" : 				{
					"source" : [ "obj-91", 0 ],
					"destination" : [ "obj-82", 0 ],
					"hidden" : 0,
					"midpoints" : [ 567.5, 294.0, 188.5, 294.0 ]
				}

			}
, 			{
				"patchline" : 				{
					"source" : [ "obj-90", 0 ],
					"destination" : [ "obj-82", 0 ],
					"hidden" : 0,
					"midpoints" : [ 614.5, 294.0, 188.5, 294.0 ]
				}

			}
, 			{
				"patchline" : 				{
					"source" : [ "obj-89", 0 ],
					"destination" : [ "obj-82", 0 ],
					"hidden" : 0,
					"midpoints" : [ 660.5, 294.0, 188.5, 294.0 ]
				}

			}
, 			{
				"patchline" : 				{
					"source" : [ "obj-88", 0 ],
					"destination" : [ "obj-82", 0 ],
					"hidden" : 0,
					"midpoints" : [ 701.5, 294.0, 188.5, 294.0 ]
				}

			}
, 			{
				"patchline" : 				{
					"source" : [ "obj-87", 0 ],
					"destination" : [ "obj-82", 0 ],
					"hidden" : 0,
					"midpoints" : [ 747.5, 294.0, 188.5, 294.0 ]
				}

			}
, 			{
				"patchline" : 				{
					"source" : [ "obj-86", 0 ],
					"destination" : [ "obj-82", 0 ],
					"hidden" : 0,
					"midpoints" : [ 794.5, 294.0, 188.5, 294.0 ]
				}

			}
, 			{
				"patchline" : 				{
					"source" : [ "obj-85", 0 ],
					"destination" : [ "obj-82", 0 ],
					"hidden" : 0,
					"midpoints" : [ 326.5, 325.5, 188.5, 325.5 ]
				}

			}
, 			{
				"patchline" : 				{
					"source" : [ "obj-84", 0 ],
					"destination" : [ "obj-82", 0 ],
					"hidden" : 0,
					"midpoints" : [ 372.5, 325.5, 188.5, 325.5 ]
				}

			}
, 			{
				"patchline" : 				{
					"source" : [ "obj-7", 0 ],
					"destination" : [ "obj-82", 0 ],
					"hidden" : 0,
					"midpoints" : [ 422.5, 327.0, 188.5, 327.0 ]
				}

			}
, 			{
				"patchline" : 				{
					"source" : [ "obj-6", 0 ],
					"destination" : [ "obj-82", 0 ],
					"hidden" : 0,
					"midpoints" : [ 469.5, 327.0, 188.5, 327.0 ]
				}

			}
, 			{
				"patchline" : 				{
					"source" : [ "obj-5", 0 ],
					"destination" : [ "obj-82", 0 ],
					"hidden" : 0,
					"midpoints" : [ 515.5, 327.0, 188.5, 327.0 ]
				}

			}
, 			{
				"patchline" : 				{
					"source" : [ "obj-4", 0 ],
					"destination" : [ "obj-82", 0 ],
					"hidden" : 0,
					"midpoints" : [ 566.5, 328.0, 188.5, 328.0 ]
				}

			}
, 			{
				"patchline" : 				{
					"source" : [ "obj-3", 0 ],
					"destination" : [ "obj-82", 0 ],
					"hidden" : 0,
					"midpoints" : [ 616.5, 327.0, 188.5, 327.0 ]
				}

			}
, 			{
				"patchline" : 				{
					"source" : [ "obj-1", 0 ],
					"destination" : [ "obj-82", 0 ],
					"hidden" : 0,
					"midpoints" : [ 669.5, 327.0, 188.5, 327.0 ]
				}

			}
, 			{
				"patchline" : 				{
					"source" : [ "obj-9", 0 ],
					"destination" : [ "obj-82", 0 ],
					"hidden" : 0,
					"midpoints" : [ 716.5, 327.0, 188.5, 327.0 ]
				}

			}
, 			{
				"patchline" : 				{
					"source" : [ "obj-8", 0 ],
					"destination" : [ "obj-82", 0 ],
					"hidden" : 0,
					"midpoints" : [ 774.5, 327.0, 188.5, 327.0 ]
				}

			}
, 			{
				"patchline" : 				{
					"source" : [ "obj-82", 0 ],
					"destination" : [ "obj-15", 1 ],
					"hidden" : 0,
					"midpoints" : [ 188.5, 374.0, 396.0, 374.0, 396.0, 335.0, 618.5, 335.0 ]
				}

			}
, 			{
				"patchline" : 				{
					"source" : [ "obj-82", 0 ],
					"destination" : [ "obj-16", 0 ],
					"hidden" : 0,
					"midpoints" : [  ]
				}

			}
 ]
	}

}
