{
	"patcher" : 	{
		"fileversion" : 1,
		"rect" : [ 286.0, 200.0, 175.0, 246.0 ],
		"bglocked" : 0,
		"defrect" : [ 286.0, 200.0, 175.0, 246.0 ],
		"openrect" : [ 0.0, 0.0, 0.0, 0.0 ],
		"openinpresentation" : 0,
		"default_fontsize" : 12.0,
		"default_fontface" : 0,
		"default_fontname" : "Arial",
		"gridonopen" : 0,
		"gridsize" : [ 15.0, 15.0 ],
		"gridsnaponopen" : 0,
		"toolbarvisible" : 1,
		"boxanimatetime" : 200,
		"imprint" : 0,
		"metadata" : [  ],
		"boxes" : [ 			{
				"box" : 				{
					"maxclass" : "inlet",
					"patching_rect" : [ 5.0, 35.0, 15.0, 15.0 ],
					"numinlets" : 0,
					"numoutlets" : 1,
					"id" : "obj-1",
					"outlettype" : [ "" ],
					"comment" : "Signal in"
				}

			}
, 			{
				"box" : 				{
					"maxclass" : "newobj",
					"text" : "*~ 0.1",
					"patching_rect" : [ 77.0, 189.0, 41.0, 17.0 ],
					"fontsize" : 9.0,
					"numinlets" : 2,
					"numoutlets" : 1,
					"id" : "obj-2",
					"fontname" : "Arial",
					"outlettype" : [ "signal" ]
				}

			}
, 			{
				"box" : 				{
					"maxclass" : "newobj",
					"text" : "*~ 0.1",
					"patching_rect" : [ 32.0, 189.0, 41.0, 17.0 ],
					"fontsize" : 9.0,
					"numinlets" : 2,
					"numoutlets" : 1,
					"id" : "obj-3",
					"fontname" : "Arial",
					"outlettype" : [ "signal" ]
				}

			}
, 			{
				"box" : 				{
					"maxclass" : "outlet",
					"patching_rect" : [ 77.0, 223.0, 15.0, 15.0 ],
					"numinlets" : 1,
					"numoutlets" : 0,
					"id" : "obj-4",
					"comment" : "right"
				}

			}
, 			{
				"box" : 				{
					"maxclass" : "outlet",
					"patching_rect" : [ 32.0, 223.0, 16.0, 16.0 ],
					"numinlets" : 1,
					"numoutlets" : 0,
					"id" : "obj-5",
					"comment" : "left"
				}

			}
, 			{
				"box" : 				{
					"maxclass" : "inlet",
					"patching_rect" : [ 25.0, 35.0, 15.0, 15.0 ],
					"numinlets" : 0,
					"numoutlets" : 1,
					"id" : "obj-6",
					"outlettype" : [ "" ],
					"comment" : "panning value (0.-1.)"
				}

			}
, 			{
				"box" : 				{
					"maxclass" : "newobj",
					"text" : "sqrt",
					"patching_rect" : [ 77.0, 160.0, 26.0, 17.0 ],
					"fontsize" : 9.0,
					"numinlets" : 1,
					"numoutlets" : 1,
					"id" : "obj-7",
					"fontname" : "Arial",
					"outlettype" : [ "float" ]
				}

			}
, 			{
				"box" : 				{
					"maxclass" : "newobj",
					"text" : "sqrt",
					"patching_rect" : [ 38.0, 160.0, 26.0, 17.0 ],
					"fontsize" : 9.0,
					"numinlets" : 1,
					"numoutlets" : 1,
					"id" : "obj-8",
					"fontname" : "Arial",
					"outlettype" : [ "float" ]
				}

			}
, 			{
				"box" : 				{
					"maxclass" : "message",
					"text" : "1",
					"patching_rect" : [ 49.0, 58.0, 25.0, 15.0 ],
					"fontsize" : 9.0,
					"numinlets" : 2,
					"numoutlets" : 1,
					"id" : "obj-9",
					"fontname" : "Arial",
					"outlettype" : [ "" ]
				}

			}
, 			{
				"box" : 				{
					"maxclass" : "newobj",
					"text" : "loadbang",
					"patching_rect" : [ 49.0, 35.0, 50.0, 17.0 ],
					"fontsize" : 9.0,
					"numinlets" : 1,
					"numoutlets" : 1,
					"id" : "obj-10",
					"fontname" : "Arial",
					"outlettype" : [ "bang" ]
				}

			}
, 			{
				"box" : 				{
					"maxclass" : "newobj",
					"text" : "!- 1.",
					"patching_rect" : [ 78.0, 106.0, 32.5, 17.0 ],
					"fontsize" : 9.0,
					"numinlets" : 2,
					"numoutlets" : 1,
					"id" : "obj-12",
					"fontname" : "Arial",
					"outlettype" : [ "float" ]
				}

			}
, 			{
				"box" : 				{
					"maxclass" : "comment",
					"text" : "panning (0-1)",
					"patching_rect" : [ 98.0, 82.0, 69.0, 17.0 ],
					"fontsize" : 9.0,
					"numinlets" : 1,
					"numoutlets" : 0,
					"id" : "obj-14",
					"fontname" : "Arial"
				}

			}
 ],
		"lines" : [ 			{
				"patchline" : 				{
					"source" : [ "obj-2", 0 ],
					"destination" : [ "obj-4", 0 ],
					"hidden" : 0,
					"midpoints" : [  ]
				}

			}
, 			{
				"patchline" : 				{
					"source" : [ "obj-1", 0 ],
					"destination" : [ "obj-2", 0 ],
					"hidden" : 0,
					"midpoints" : [ 14.0, 181.0, 86.5, 181.0 ]
				}

			}
, 			{
				"patchline" : 				{
					"source" : [ "obj-10", 0 ],
					"destination" : [ "obj-9", 0 ],
					"hidden" : 0,
					"midpoints" : [  ]
				}

			}
, 			{
				"patchline" : 				{
					"source" : [ "obj-3", 0 ],
					"destination" : [ "obj-5", 0 ],
					"hidden" : 0,
					"midpoints" : [  ]
				}

			}
, 			{
				"patchline" : 				{
					"source" : [ "obj-1", 0 ],
					"destination" : [ "obj-3", 0 ],
					"hidden" : 0,
					"midpoints" : [ 14.0, 181.0, 41.5, 181.0 ]
				}

			}
, 			{
				"patchline" : 				{
					"source" : [ "obj-7", 0 ],
					"destination" : [ "obj-2", 1 ],
					"hidden" : 0,
					"midpoints" : [ 86.5, 183.0, 108.5, 183.0 ]
				}

			}
, 			{
				"patchline" : 				{
					"source" : [ "obj-8", 0 ],
					"destination" : [ "obj-3", 1 ],
					"hidden" : 0,
					"midpoints" : [ 47.5, 183.0, 63.5, 183.0 ]
				}

			}
, 			{
				"patchline" : 				{
					"source" : [ "obj-12", 0 ],
					"destination" : [ "obj-7", 0 ],
					"hidden" : 0,
					"midpoints" : [  ]
				}

			}
, 			{
				"patchline" : 				{
					"source" : [ "obj-6", 0 ],
					"destination" : [ "obj-12", 0 ],
					"hidden" : 0,
					"midpoints" : [ 34.0, 93.0, 87.5, 93.0 ]
				}

			}
, 			{
				"patchline" : 				{
					"source" : [ "obj-6", 0 ],
					"destination" : [ "obj-8", 0 ],
					"hidden" : 0,
					"midpoints" : [ 34.0, 129.0, 47.5, 129.0 ]
				}

			}
, 			{
				"patchline" : 				{
					"source" : [ "obj-9", 0 ],
					"destination" : [ "obj-12", 0 ],
					"hidden" : 0,
					"midpoints" : [ 58.5, 93.0, 87.5, 93.0 ]
				}

			}
, 			{
				"patchline" : 				{
					"source" : [ "obj-9", 0 ],
					"destination" : [ "obj-8", 0 ],
					"hidden" : 0,
					"midpoints" : [ 58.5, 129.0, 47.5, 129.0 ]
				}

			}
 ]
	}

}
