{
	"patcher" : 	{
		"fileversion" : 1,
		"rect" : [ 101.0, 47.0, 1138.0, 726.0 ],
		"bglocked" : 0,
		"defrect" : [ 101.0, 47.0, 1138.0, 726.0 ],
		"openrect" : [ 0.0, 0.0, 0.0, 0.0 ],
		"openinpresentation" : 1,
		"default_fontsize" : 12.0,
		"default_fontface" : 0,
		"default_fontname" : "Arial",
		"gridonopen" : 0,
		"gridsize" : [ 15.0, 15.0 ],
		"gridsnaponopen" : 0,
		"toolbarvisible" : 1,
		"boxanimatetime" : 200,
		"imprint" : 0,
		"boxes" : [ 			{
				"box" : 				{
					"maxclass" : "newobj",
					"text" : "r patampget",
					"outlettype" : [ "" ],
					"id" : "obj-2",
					"fontname" : "Arial",
					"patching_rect" : [ 807.0, 454.0, 75.0, 20.0 ],
					"fontsize" : 12.0,
					"numinlets" : 0,
					"color" : [ 0.87451, 0.25098, 0.717647, 1.0 ],
					"numoutlets" : 1
				}

			}
, 			{
				"box" : 				{
					"maxclass" : "newobj",
					"text" : "r patamp",
					"outlettype" : [ "" ],
					"id" : "obj-1",
					"fontname" : "Arial",
					"patching_rect" : [ 7.0, 15.0, 58.0, 20.0 ],
					"fontsize" : 12.0,
					"numinlets" : 0,
					"color" : [ 0.87451, 0.25098, 0.717647, 1.0 ],
					"numoutlets" : 1
				}

			}
, 			{
				"box" : 				{
					"maxclass" : "flonum",
					"outlettype" : [ "float", "bang" ],
					"id" : "obj-57",
					"fontname" : "Arial",
					"patching_rect" : [ 69.0, 227.0, 50.0, 20.0 ],
					"fontsize" : 12.0,
					"numinlets" : 1,
					"numoutlets" : 2
				}

			}
, 			{
				"box" : 				{
					"maxclass" : "comment",
					"text" : "l\no\na\nd",
					"linecount" : 4,
					"presentation_linecount" : 4,
					"presentation_rect" : [ 92.0, 57.0, 20.0, 68.0 ],
					"id" : "obj-4",
					"fontname" : "Chalkboard",
					"patching_rect" : [ 1108.0, 23.0, 22.0, 68.0 ],
					"presentation" : 1,
					"fontsize" : 12.0,
					"numinlets" : 1,
					"numoutlets" : 0
				}

			}
, 			{
				"box" : 				{
					"maxclass" : "comment",
					"text" : "g\nu\na\nr\nd\na\nr",
					"linecount" : 7,
					"presentation_linecount" : 7,
					"presentation_rect" : [ 3.0, 36.0, 20.0, 114.0 ],
					"id" : "obj-3",
					"fontname" : "Chalkboard",
					"patching_rect" : [ 1066.0, 23.0, 22.0, 114.0 ],
					"presentation" : 1,
					"fontsize" : 12.0,
					"numinlets" : 1,
					"numoutlets" : 0
				}

			}
, 			{
				"box" : 				{
					"maxclass" : "newobj",
					"text" : "t b l",
					"outlettype" : [ "bang", "" ],
					"id" : "obj-62",
					"fontname" : "Arial",
					"patching_rect" : [ 7.0, 145.0, 32.5, 20.0 ],
					"fontsize" : 12.0,
					"numinlets" : 1,
					"numoutlets" : 2
				}

			}
, 			{
				"box" : 				{
					"maxclass" : "newobj",
					"text" : "zl nth 41",
					"outlettype" : [ "", "" ],
					"id" : "obj-79",
					"fontname" : "Arial",
					"patching_rect" : [ 1061.0, 632.0, 56.0, 20.0 ],
					"fontsize" : 12.0,
					"numinlets" : 2,
					"numoutlets" : 2
				}

			}
, 			{
				"box" : 				{
					"maxclass" : "newobj",
					"text" : "s amppartial200",
					"id" : "obj-78",
					"fontname" : "Arial",
					"patching_rect" : [ 678.0, 694.0, 96.0, 20.0 ],
					"fontsize" : 12.0,
					"numinlets" : 1,
					"color" : [ 0.87451, 0.25098, 0.717647, 1.0 ],
					"numoutlets" : 0
				}

			}
, 			{
				"box" : 				{
					"maxclass" : "newobj",
					"text" : "f",
					"outlettype" : [ "float" ],
					"id" : "obj-76",
					"fontname" : "Arial",
					"patching_rect" : [ 855.0, 234.0, 32.5, 20.0 ],
					"fontsize" : 12.0,
					"numinlets" : 2,
					"numoutlets" : 1
				}

			}
, 			{
				"box" : 				{
					"maxclass" : "newobj",
					"text" : "r amp20",
					"outlettype" : [ "" ],
					"id" : "obj-77",
					"fontname" : "Arial",
					"patching_rect" : [ 869.0, 206.0, 55.0, 20.0 ],
					"fontsize" : 12.0,
					"numinlets" : 0,
					"color" : [ 0.87451, 0.25098, 0.717647, 1.0 ],
					"numoutlets" : 1
				}

			}
, 			{
				"box" : 				{
					"maxclass" : "newobj",
					"text" : "t b l",
					"outlettype" : [ "bang", "" ],
					"id" : "obj-75",
					"fontname" : "Arial",
					"patching_rect" : [ 459.0, 558.0, 32.5, 20.0 ],
					"fontsize" : 12.0,
					"numinlets" : 1,
					"numoutlets" : 2
				}

			}
, 			{
				"box" : 				{
					"maxclass" : "number",
					"outlettype" : [ "int", "bang" ],
					"id" : "obj-65",
					"fontname" : "Arial",
					"patching_rect" : [ 485.0, 369.0, 50.0, 20.0 ],
					"fontsize" : 12.0,
					"numinlets" : 1,
					"numoutlets" : 2
				}

			}
, 			{
				"box" : 				{
					"maxclass" : "newobj",
					"text" : "s amppartial199",
					"id" : "obj-125",
					"fontname" : "Arial",
					"patching_rect" : [ 576.0, 695.0, 96.0, 20.0 ],
					"fontsize" : 12.0,
					"numinlets" : 1,
					"color" : [ 0.87451, 0.25098, 0.717647, 1.0 ],
					"numoutlets" : 0
				}

			}
, 			{
				"box" : 				{
					"maxclass" : "newobj",
					"text" : "s amppartial188",
					"id" : "obj-126",
					"fontname" : "Arial",
					"patching_rect" : [ 482.0, 694.0, 96.0, 20.0 ],
					"fontsize" : 12.0,
					"numinlets" : 1,
					"color" : [ 0.87451, 0.25098, 0.717647, 1.0 ],
					"numoutlets" : 0
				}

			}
, 			{
				"box" : 				{
					"maxclass" : "newobj",
					"text" : "s amppartial177",
					"id" : "obj-127",
					"fontname" : "Arial",
					"patching_rect" : [ 388.0, 695.0, 96.0, 20.0 ],
					"fontsize" : 12.0,
					"numinlets" : 1,
					"color" : [ 0.87451, 0.25098, 0.717647, 1.0 ],
					"numoutlets" : 0
				}

			}
, 			{
				"box" : 				{
					"maxclass" : "newobj",
					"text" : "s amppartial166",
					"id" : "obj-128",
					"fontname" : "Arial",
					"patching_rect" : [ 292.0, 695.0, 96.0, 20.0 ],
					"fontsize" : 12.0,
					"numinlets" : 1,
					"color" : [ 0.87451, 0.25098, 0.717647, 1.0 ],
					"numoutlets" : 0
				}

			}
, 			{
				"box" : 				{
					"maxclass" : "newobj",
					"text" : "s amppartial155",
					"id" : "obj-129",
					"fontname" : "Arial",
					"patching_rect" : [ 196.0, 695.0, 96.0, 20.0 ],
					"fontsize" : 12.0,
					"numinlets" : 1,
					"color" : [ 0.87451, 0.25098, 0.717647, 1.0 ],
					"numoutlets" : 0
				}

			}
, 			{
				"box" : 				{
					"maxclass" : "newobj",
					"text" : "s amppartial144",
					"id" : "obj-130",
					"fontname" : "Arial",
					"patching_rect" : [ 103.0, 695.0, 96.0, 20.0 ],
					"fontsize" : 12.0,
					"numinlets" : 1,
					"color" : [ 0.87451, 0.25098, 0.717647, 1.0 ],
					"numoutlets" : 0
				}

			}
, 			{
				"box" : 				{
					"maxclass" : "newobj",
					"text" : "s amppartial133",
					"id" : "obj-131",
					"fontname" : "Arial",
					"patching_rect" : [ 14.0, 695.0, 96.0, 20.0 ],
					"fontsize" : 12.0,
					"numinlets" : 1,
					"color" : [ 0.87451, 0.25098, 0.717647, 1.0 ],
					"numoutlets" : 0
				}

			}
, 			{
				"box" : 				{
					"maxclass" : "newobj",
					"text" : "s amppartial122",
					"id" : "obj-112",
					"fontname" : "Arial",
					"patching_rect" : [ 928.0, 663.0, 96.0, 20.0 ],
					"fontsize" : 12.0,
					"numinlets" : 1,
					"color" : [ 0.87451, 0.25098, 0.717647, 1.0 ],
					"numoutlets" : 0
				}

			}
, 			{
				"box" : 				{
					"maxclass" : "newobj",
					"text" : "s amppartial111",
					"id" : "obj-113",
					"fontname" : "Arial",
					"patching_rect" : [ 841.0, 663.0, 96.0, 20.0 ],
					"fontsize" : 12.0,
					"numinlets" : 1,
					"color" : [ 0.87451, 0.25098, 0.717647, 1.0 ],
					"numoutlets" : 0
				}

			}
, 			{
				"box" : 				{
					"maxclass" : "newobj",
					"text" : "s amppartial100",
					"id" : "obj-114",
					"fontname" : "Arial",
					"patching_rect" : [ 752.0, 669.0, 96.0, 20.0 ],
					"fontsize" : 12.0,
					"numinlets" : 1,
					"color" : [ 0.87451, 0.25098, 0.717647, 1.0 ],
					"numoutlets" : 0
				}

			}
, 			{
				"box" : 				{
					"maxclass" : "newobj",
					"text" : "s amppartial99",
					"id" : "obj-115",
					"fontname" : "Arial",
					"patching_rect" : [ 670.0, 663.0, 89.0, 20.0 ],
					"fontsize" : 12.0,
					"numinlets" : 1,
					"color" : [ 0.87451, 0.25098, 0.717647, 1.0 ],
					"numoutlets" : 0
				}

			}
, 			{
				"box" : 				{
					"maxclass" : "newobj",
					"text" : "s amppartial88",
					"id" : "obj-116",
					"fontname" : "Arial",
					"patching_rect" : [ 589.0, 663.0, 89.0, 20.0 ],
					"fontsize" : 12.0,
					"numinlets" : 1,
					"color" : [ 0.87451, 0.25098, 0.717647, 1.0 ],
					"numoutlets" : 0
				}

			}
, 			{
				"box" : 				{
					"maxclass" : "newobj",
					"text" : "s amppartial77",
					"id" : "obj-117",
					"fontname" : "Arial",
					"patching_rect" : [ 508.0, 663.0, 89.0, 20.0 ],
					"fontsize" : 12.0,
					"numinlets" : 1,
					"color" : [ 0.87451, 0.25098, 0.717647, 1.0 ],
					"numoutlets" : 0
				}

			}
, 			{
				"box" : 				{
					"maxclass" : "newobj",
					"text" : "s amppartial66",
					"id" : "obj-118",
					"fontname" : "Arial",
					"patching_rect" : [ 428.0, 663.0, 89.0, 20.0 ],
					"fontsize" : 12.0,
					"numinlets" : 1,
					"color" : [ 0.87451, 0.25098, 0.717647, 1.0 ],
					"numoutlets" : 0
				}

			}
, 			{
				"box" : 				{
					"maxclass" : "newobj",
					"text" : "s amppartial55",
					"id" : "obj-119",
					"fontname" : "Arial",
					"patching_rect" : [ 346.0, 663.0, 89.0, 20.0 ],
					"fontsize" : 12.0,
					"numinlets" : 1,
					"color" : [ 0.87451, 0.25098, 0.717647, 1.0 ],
					"numoutlets" : 0
				}

			}
, 			{
				"box" : 				{
					"maxclass" : "newobj",
					"text" : "s amppartial44",
					"id" : "obj-120",
					"fontname" : "Arial",
					"patching_rect" : [ 261.0, 663.0, 89.0, 20.0 ],
					"fontsize" : 12.0,
					"numinlets" : 1,
					"color" : [ 0.87451, 0.25098, 0.717647, 1.0 ],
					"numoutlets" : 0
				}

			}
, 			{
				"box" : 				{
					"maxclass" : "newobj",
					"text" : "s amppartial33",
					"id" : "obj-122",
					"fontname" : "Arial",
					"patching_rect" : [ 182.0, 663.0, 89.0, 20.0 ],
					"fontsize" : 12.0,
					"numinlets" : 1,
					"color" : [ 0.87451, 0.25098, 0.717647, 1.0 ],
					"numoutlets" : 0
				}

			}
, 			{
				"box" : 				{
					"maxclass" : "newobj",
					"text" : "s amppartial22",
					"id" : "obj-123",
					"fontname" : "Arial",
					"patching_rect" : [ 89.0, 663.0, 89.0, 20.0 ],
					"fontsize" : 12.0,
					"numinlets" : 1,
					"color" : [ 0.87451, 0.25098, 0.717647, 1.0 ],
					"numoutlets" : 0
				}

			}
, 			{
				"box" : 				{
					"maxclass" : "newobj",
					"text" : "s amppartial11",
					"id" : "obj-124",
					"fontname" : "Arial",
					"patching_rect" : [ 6.0, 663.0, 89.0, 20.0 ],
					"fontsize" : 12.0,
					"numinlets" : 1,
					"color" : [ 0.87451, 0.25098, 0.717647, 1.0 ],
					"numoutlets" : 0
				}

			}
, 			{
				"box" : 				{
					"maxclass" : "newobj",
					"text" : "zl nth 39",
					"outlettype" : [ "", "" ],
					"id" : "obj-111",
					"fontname" : "Arial",
					"patching_rect" : [ 1004.0, 633.0, 56.0, 20.0 ],
					"fontsize" : 12.0,
					"numinlets" : 2,
					"numoutlets" : 2
				}

			}
, 			{
				"box" : 				{
					"maxclass" : "newobj",
					"text" : "zl nth 37",
					"outlettype" : [ "", "" ],
					"id" : "obj-109",
					"fontname" : "Arial",
					"patching_rect" : [ 947.0, 634.0, 56.0, 20.0 ],
					"fontsize" : 12.0,
					"numinlets" : 2,
					"numoutlets" : 2
				}

			}
, 			{
				"box" : 				{
					"maxclass" : "newobj",
					"text" : "zl nth 35",
					"outlettype" : [ "", "" ],
					"id" : "obj-110",
					"fontname" : "Arial",
					"patching_rect" : [ 891.0, 634.0, 56.0, 20.0 ],
					"fontsize" : 12.0,
					"numinlets" : 2,
					"numoutlets" : 2
				}

			}
, 			{
				"box" : 				{
					"maxclass" : "newobj",
					"text" : "zl nth 33",
					"outlettype" : [ "", "" ],
					"id" : "obj-101",
					"fontname" : "Arial",
					"patching_rect" : [ 834.0, 634.0, 56.0, 20.0 ],
					"fontsize" : 12.0,
					"numinlets" : 2,
					"numoutlets" : 2
				}

			}
, 			{
				"box" : 				{
					"maxclass" : "newobj",
					"text" : "zl nth 31",
					"outlettype" : [ "", "" ],
					"id" : "obj-102",
					"fontname" : "Arial",
					"patching_rect" : [ 778.0, 634.0, 56.0, 20.0 ],
					"fontsize" : 12.0,
					"numinlets" : 2,
					"numoutlets" : 2
				}

			}
, 			{
				"box" : 				{
					"maxclass" : "newobj",
					"text" : "zl nth 29",
					"outlettype" : [ "", "" ],
					"id" : "obj-103",
					"fontname" : "Arial",
					"patching_rect" : [ 724.0, 634.0, 56.0, 20.0 ],
					"fontsize" : 12.0,
					"numinlets" : 2,
					"numoutlets" : 2
				}

			}
, 			{
				"box" : 				{
					"maxclass" : "newobj",
					"text" : "zl nth 27",
					"outlettype" : [ "", "" ],
					"id" : "obj-104",
					"fontname" : "Arial",
					"patching_rect" : [ 669.0, 634.0, 56.0, 20.0 ],
					"fontsize" : 12.0,
					"numinlets" : 2,
					"numoutlets" : 2
				}

			}
, 			{
				"box" : 				{
					"maxclass" : "newobj",
					"text" : "zl nth 25",
					"outlettype" : [ "", "" ],
					"id" : "obj-105",
					"fontname" : "Arial",
					"patching_rect" : [ 610.0, 634.0, 56.0, 20.0 ],
					"fontsize" : 12.0,
					"numinlets" : 2,
					"numoutlets" : 2
				}

			}
, 			{
				"box" : 				{
					"maxclass" : "newobj",
					"text" : "zl nth 23",
					"outlettype" : [ "", "" ],
					"id" : "obj-106",
					"fontname" : "Arial",
					"patching_rect" : [ 552.0, 634.0, 56.0, 20.0 ],
					"fontsize" : 12.0,
					"numinlets" : 2,
					"numoutlets" : 2
				}

			}
, 			{
				"box" : 				{
					"maxclass" : "newobj",
					"text" : "zl nth 21",
					"outlettype" : [ "", "" ],
					"id" : "obj-107",
					"fontname" : "Arial",
					"patching_rect" : [ 494.0, 634.0, 56.0, 20.0 ],
					"fontsize" : 12.0,
					"numinlets" : 2,
					"numoutlets" : 2
				}

			}
, 			{
				"box" : 				{
					"maxclass" : "newobj",
					"text" : "zl nth 19",
					"outlettype" : [ "", "" ],
					"id" : "obj-108",
					"fontname" : "Arial",
					"patching_rect" : [ 435.0, 634.0, 56.0, 20.0 ],
					"fontsize" : 12.0,
					"numinlets" : 2,
					"numoutlets" : 2
				}

			}
, 			{
				"box" : 				{
					"maxclass" : "newobj",
					"text" : "zl nth 17",
					"outlettype" : [ "", "" ],
					"id" : "obj-97",
					"fontname" : "Arial",
					"patching_rect" : [ 378.0, 634.0, 56.0, 20.0 ],
					"fontsize" : 12.0,
					"numinlets" : 2,
					"numoutlets" : 2
				}

			}
, 			{
				"box" : 				{
					"maxclass" : "newobj",
					"text" : "zl nth 15",
					"outlettype" : [ "", "" ],
					"id" : "obj-98",
					"fontname" : "Arial",
					"patching_rect" : [ 327.0, 634.0, 56.0, 20.0 ],
					"fontsize" : 12.0,
					"numinlets" : 2,
					"numoutlets" : 2
				}

			}
, 			{
				"box" : 				{
					"maxclass" : "newobj",
					"text" : "zl nth 13",
					"outlettype" : [ "", "" ],
					"id" : "obj-99",
					"fontname" : "Arial",
					"patching_rect" : [ 277.0, 634.0, 56.0, 20.0 ],
					"fontsize" : 12.0,
					"numinlets" : 2,
					"numoutlets" : 2
				}

			}
, 			{
				"box" : 				{
					"maxclass" : "newobj",
					"text" : "zl nth 11",
					"outlettype" : [ "", "" ],
					"id" : "obj-100",
					"fontname" : "Arial",
					"patching_rect" : [ 226.0, 634.0, 56.0, 20.0 ],
					"fontsize" : 12.0,
					"numinlets" : 2,
					"numoutlets" : 2
				}

			}
, 			{
				"box" : 				{
					"maxclass" : "newobj",
					"text" : "zl nth 9",
					"outlettype" : [ "", "" ],
					"id" : "obj-95",
					"fontname" : "Arial",
					"patching_rect" : [ 177.0, 634.0, 49.0, 20.0 ],
					"fontsize" : 12.0,
					"numinlets" : 2,
					"numoutlets" : 2
				}

			}
, 			{
				"box" : 				{
					"maxclass" : "newobj",
					"text" : "zl nth 7",
					"outlettype" : [ "", "" ],
					"id" : "obj-96",
					"fontname" : "Arial",
					"patching_rect" : [ 126.0, 634.0, 49.0, 20.0 ],
					"fontsize" : 12.0,
					"numinlets" : 2,
					"numoutlets" : 2
				}

			}
, 			{
				"box" : 				{
					"maxclass" : "newobj",
					"text" : "zl nth 5",
					"outlettype" : [ "", "" ],
					"id" : "obj-94",
					"fontname" : "Arial",
					"patching_rect" : [ 76.0, 634.0, 49.0, 20.0 ],
					"fontsize" : 12.0,
					"numinlets" : 2,
					"numoutlets" : 2
				}

			}
, 			{
				"box" : 				{
					"maxclass" : "newobj",
					"text" : "zl nth 3",
					"outlettype" : [ "", "" ],
					"id" : "obj-91",
					"fontname" : "Arial",
					"patching_rect" : [ 14.0, 634.0, 49.0, 20.0 ],
					"fontsize" : 12.0,
					"numinlets" : 2,
					"numoutlets" : 2
				}

			}
, 			{
				"box" : 				{
					"maxclass" : "number",
					"outlettype" : [ "int", "bang" ],
					"id" : "obj-81",
					"fontname" : "Arial",
					"patching_rect" : [ 807.0, 483.0, 50.0, 20.0 ],
					"fontsize" : 12.0,
					"numinlets" : 1,
					"numoutlets" : 2
				}

			}
, 			{
				"box" : 				{
					"maxclass" : "newobj",
					"text" : "pipe 50",
					"outlettype" : [ "" ],
					"id" : "obj-56",
					"fontname" : "Arial",
					"patching_rect" : [ 7.0, 97.0, 50.0, 20.0 ],
					"fontsize" : 12.0,
					"numinlets" : 2,
					"numoutlets" : 1
				}

			}
, 			{
				"box" : 				{
					"maxclass" : "newobj",
					"text" : "delay 10",
					"outlettype" : [ "bang" ],
					"id" : "obj-55",
					"fontname" : "Arial",
					"patching_rect" : [ 21.0, 68.0, 56.0, 20.0 ],
					"fontsize" : 12.0,
					"numinlets" : 2,
					"numoutlets" : 1
				}

			}
, 			{
				"box" : 				{
					"maxclass" : "newobj",
					"text" : "t i b b",
					"outlettype" : [ "int", "bang", "bang" ],
					"id" : "obj-54",
					"fontname" : "Arial",
					"patching_rect" : [ 7.0, 38.0, 46.0, 20.0 ],
					"fontsize" : 12.0,
					"numinlets" : 1,
					"numoutlets" : 3
				}

			}
, 			{
				"box" : 				{
					"maxclass" : "newobj",
					"text" : "t b b b b b b b b b b b b b b b b b b b b",
					"outlettype" : [ "bang", "bang", "bang", "bang", "bang", "bang", "bang", "bang", "bang", "bang", "bang", "bang", "bang", "bang", "bang", "bang", "bang", "bang", "bang", "bang" ],
					"id" : "obj-53",
					"fontname" : "Arial",
					"patching_rect" : [ 454.0, 68.0, 275.5, 20.0 ],
					"fontsize" : 12.0,
					"numinlets" : 1,
					"numoutlets" : 20
				}

			}
, 			{
				"box" : 				{
					"maxclass" : "newobj",
					"text" : "f",
					"outlettype" : [ "float" ],
					"id" : "obj-39",
					"fontname" : "Arial",
					"patching_rect" : [ 766.0, 235.0, 32.5, 20.0 ],
					"fontsize" : 12.0,
					"numinlets" : 2,
					"numoutlets" : 1
				}

			}
, 			{
				"box" : 				{
					"maxclass" : "newobj",
					"text" : "f",
					"outlettype" : [ "float" ],
					"id" : "obj-40",
					"fontname" : "Arial",
					"patching_rect" : [ 672.0, 235.0, 32.5, 20.0 ],
					"fontsize" : 12.0,
					"numinlets" : 2,
					"numoutlets" : 1
				}

			}
, 			{
				"box" : 				{
					"maxclass" : "newobj",
					"text" : "f",
					"outlettype" : [ "float" ],
					"id" : "obj-47",
					"fontname" : "Arial",
					"patching_rect" : [ 578.0, 235.0, 32.5, 20.0 ],
					"fontsize" : 12.0,
					"numinlets" : 2,
					"numoutlets" : 1
				}

			}
, 			{
				"box" : 				{
					"maxclass" : "newobj",
					"text" : "f",
					"outlettype" : [ "float" ],
					"id" : "obj-48",
					"fontname" : "Arial",
					"patching_rect" : [ 482.0, 235.0, 32.5, 20.0 ],
					"fontsize" : 12.0,
					"numinlets" : 2,
					"numoutlets" : 1
				}

			}
, 			{
				"box" : 				{
					"maxclass" : "newobj",
					"text" : "f",
					"outlettype" : [ "float" ],
					"id" : "obj-49",
					"fontname" : "Arial",
					"patching_rect" : [ 386.0, 235.0, 32.5, 20.0 ],
					"fontsize" : 12.0,
					"numinlets" : 2,
					"numoutlets" : 1
				}

			}
, 			{
				"box" : 				{
					"maxclass" : "newobj",
					"text" : "f",
					"outlettype" : [ "float" ],
					"id" : "obj-50",
					"fontname" : "Arial",
					"patching_rect" : [ 293.0, 235.0, 32.5, 20.0 ],
					"fontsize" : 12.0,
					"numinlets" : 2,
					"numoutlets" : 1
				}

			}
, 			{
				"box" : 				{
					"maxclass" : "newobj",
					"text" : "f",
					"outlettype" : [ "float" ],
					"id" : "obj-51",
					"fontname" : "Arial",
					"patching_rect" : [ 204.0, 235.0, 32.5, 20.0 ],
					"fontsize" : 12.0,
					"numinlets" : 2,
					"numoutlets" : 1
				}

			}
, 			{
				"box" : 				{
					"maxclass" : "newobj",
					"text" : "f",
					"outlettype" : [ "float" ],
					"id" : "obj-36",
					"fontname" : "Arial",
					"patching_rect" : [ 935.0, 181.0, 32.5, 20.0 ],
					"fontsize" : 12.0,
					"numinlets" : 2,
					"numoutlets" : 1
				}

			}
, 			{
				"box" : 				{
					"maxclass" : "newobj",
					"text" : "f",
					"outlettype" : [ "float" ],
					"id" : "obj-37",
					"fontname" : "Arial",
					"patching_rect" : [ 848.0, 181.0, 32.5, 20.0 ],
					"fontsize" : 12.0,
					"numinlets" : 2,
					"numoutlets" : 1
				}

			}
, 			{
				"box" : 				{
					"maxclass" : "newobj",
					"text" : "f",
					"outlettype" : [ "float" ],
					"id" : "obj-38",
					"fontname" : "Arial",
					"patching_rect" : [ 760.0, 181.0, 32.5, 20.0 ],
					"fontsize" : 12.0,
					"numinlets" : 2,
					"numoutlets" : 1
				}

			}
, 			{
				"box" : 				{
					"maxclass" : "newobj",
					"text" : "f",
					"outlettype" : [ "float" ],
					"id" : "obj-33",
					"fontname" : "Arial",
					"patching_rect" : [ 682.0, 181.0, 32.5, 20.0 ],
					"fontsize" : 12.0,
					"numinlets" : 2,
					"numoutlets" : 1
				}

			}
, 			{
				"box" : 				{
					"maxclass" : "newobj",
					"text" : "f",
					"outlettype" : [ "float" ],
					"id" : "obj-34",
					"fontname" : "Arial",
					"patching_rect" : [ 601.0, 181.0, 32.5, 20.0 ],
					"fontsize" : 12.0,
					"numinlets" : 2,
					"numoutlets" : 1
				}

			}
, 			{
				"box" : 				{
					"maxclass" : "newobj",
					"text" : "f",
					"outlettype" : [ "float" ],
					"id" : "obj-35",
					"fontname" : "Arial",
					"patching_rect" : [ 518.0, 181.0, 32.5, 20.0 ],
					"fontsize" : 12.0,
					"numinlets" : 2,
					"numoutlets" : 1
				}

			}
, 			{
				"box" : 				{
					"maxclass" : "newobj",
					"text" : "f",
					"outlettype" : [ "float" ],
					"id" : "obj-30",
					"fontname" : "Arial",
					"patching_rect" : [ 436.0, 181.0, 32.5, 20.0 ],
					"fontsize" : 12.0,
					"numinlets" : 2,
					"numoutlets" : 1
				}

			}
, 			{
				"box" : 				{
					"maxclass" : "newobj",
					"text" : "f",
					"outlettype" : [ "float" ],
					"id" : "obj-31",
					"fontname" : "Arial",
					"patching_rect" : [ 355.0, 181.0, 32.5, 20.0 ],
					"fontsize" : 12.0,
					"numinlets" : 2,
					"numoutlets" : 1
				}

			}
, 			{
				"box" : 				{
					"maxclass" : "newobj",
					"text" : "f",
					"outlettype" : [ "float" ],
					"id" : "obj-32",
					"fontname" : "Arial",
					"patching_rect" : [ 272.0, 181.0, 32.5, 20.0 ],
					"fontsize" : 12.0,
					"numinlets" : 2,
					"numoutlets" : 1
				}

			}
, 			{
				"box" : 				{
					"maxclass" : "newobj",
					"text" : "f",
					"outlettype" : [ "float" ],
					"id" : "obj-29",
					"fontname" : "Arial",
					"patching_rect" : [ 192.0, 181.0, 32.5, 20.0 ],
					"fontsize" : 12.0,
					"numinlets" : 2,
					"numoutlets" : 1
				}

			}
, 			{
				"box" : 				{
					"maxclass" : "newobj",
					"text" : "f",
					"outlettype" : [ "float" ],
					"id" : "obj-28",
					"fontname" : "Arial",
					"patching_rect" : [ 111.0, 181.0, 32.5, 20.0 ],
					"fontsize" : 12.0,
					"numinlets" : 2,
					"numoutlets" : 1
				}

			}
, 			{
				"box" : 				{
					"maxclass" : "newobj",
					"text" : "f",
					"outlettype" : [ "float" ],
					"id" : "obj-27",
					"fontname" : "Arial",
					"patching_rect" : [ 28.0, 181.0, 32.5, 20.0 ],
					"fontsize" : 12.0,
					"numinlets" : 2,
					"numoutlets" : 1
				}

			}
, 			{
				"box" : 				{
					"maxclass" : "newobj",
					"text" : "r amp19",
					"outlettype" : [ "" ],
					"id" : "obj-20",
					"fontname" : "Arial",
					"patching_rect" : [ 780.0, 207.0, 55.0, 20.0 ],
					"fontsize" : 12.0,
					"numinlets" : 0,
					"color" : [ 0.87451, 0.25098, 0.717647, 1.0 ],
					"numoutlets" : 1
				}

			}
, 			{
				"box" : 				{
					"maxclass" : "newobj",
					"text" : "r amp18",
					"outlettype" : [ "" ],
					"id" : "obj-21",
					"fontname" : "Arial",
					"patching_rect" : [ 686.0, 207.0, 55.0, 20.0 ],
					"fontsize" : 12.0,
					"numinlets" : 0,
					"color" : [ 0.87451, 0.25098, 0.717647, 1.0 ],
					"numoutlets" : 1
				}

			}
, 			{
				"box" : 				{
					"maxclass" : "newobj",
					"text" : "r amp17",
					"outlettype" : [ "" ],
					"id" : "obj-22",
					"fontname" : "Arial",
					"patching_rect" : [ 592.0, 207.0, 55.0, 20.0 ],
					"fontsize" : 12.0,
					"numinlets" : 0,
					"color" : [ 0.87451, 0.25098, 0.717647, 1.0 ],
					"numoutlets" : 1
				}

			}
, 			{
				"box" : 				{
					"maxclass" : "newobj",
					"text" : "r amp16",
					"outlettype" : [ "" ],
					"id" : "obj-23",
					"fontname" : "Arial",
					"patching_rect" : [ 496.0, 207.0, 55.0, 20.0 ],
					"fontsize" : 12.0,
					"numinlets" : 0,
					"color" : [ 0.87451, 0.25098, 0.717647, 1.0 ],
					"numoutlets" : 1
				}

			}
, 			{
				"box" : 				{
					"maxclass" : "newobj",
					"text" : "r amp15",
					"outlettype" : [ "" ],
					"id" : "obj-24",
					"fontname" : "Arial",
					"patching_rect" : [ 400.0, 207.0, 55.0, 20.0 ],
					"fontsize" : 12.0,
					"numinlets" : 0,
					"color" : [ 0.87451, 0.25098, 0.717647, 1.0 ],
					"numoutlets" : 1
				}

			}
, 			{
				"box" : 				{
					"maxclass" : "newobj",
					"text" : "r amp14",
					"outlettype" : [ "" ],
					"id" : "obj-25",
					"fontname" : "Arial",
					"patching_rect" : [ 307.0, 207.0, 55.0, 20.0 ],
					"fontsize" : 12.0,
					"numinlets" : 0,
					"color" : [ 0.87451, 0.25098, 0.717647, 1.0 ],
					"numoutlets" : 1
				}

			}
, 			{
				"box" : 				{
					"maxclass" : "newobj",
					"text" : "r amp13",
					"outlettype" : [ "" ],
					"id" : "obj-26",
					"fontname" : "Arial",
					"patching_rect" : [ 218.0, 207.0, 55.0, 20.0 ],
					"fontsize" : 12.0,
					"numinlets" : 0,
					"color" : [ 0.87451, 0.25098, 0.717647, 1.0 ],
					"numoutlets" : 1
				}

			}
, 			{
				"box" : 				{
					"maxclass" : "newobj",
					"text" : "r amp12",
					"outlettype" : [ "" ],
					"id" : "obj-15",
					"fontname" : "Arial",
					"patching_rect" : [ 949.0, 145.0, 55.0, 20.0 ],
					"fontsize" : 12.0,
					"numinlets" : 0,
					"color" : [ 0.87451, 0.25098, 0.717647, 1.0 ],
					"numoutlets" : 1
				}

			}
, 			{
				"box" : 				{
					"maxclass" : "newobj",
					"text" : "r amp11",
					"outlettype" : [ "" ],
					"id" : "obj-16",
					"fontname" : "Arial",
					"patching_rect" : [ 862.0, 145.0, 55.0, 20.0 ],
					"fontsize" : 12.0,
					"numinlets" : 0,
					"color" : [ 0.87451, 0.25098, 0.717647, 1.0 ],
					"numoutlets" : 1
				}

			}
, 			{
				"box" : 				{
					"maxclass" : "newobj",
					"text" : "r amp10",
					"outlettype" : [ "" ],
					"id" : "obj-17",
					"fontname" : "Arial",
					"patching_rect" : [ 774.0, 145.0, 55.0, 20.0 ],
					"fontsize" : 12.0,
					"numinlets" : 0,
					"color" : [ 0.87451, 0.25098, 0.717647, 1.0 ],
					"numoutlets" : 1
				}

			}
, 			{
				"box" : 				{
					"maxclass" : "newobj",
					"text" : "r amp9",
					"outlettype" : [ "" ],
					"id" : "obj-18",
					"fontname" : "Arial",
					"patching_rect" : [ 696.0, 145.0, 48.0, 20.0 ],
					"fontsize" : 12.0,
					"numinlets" : 0,
					"color" : [ 0.87451, 0.25098, 0.717647, 1.0 ],
					"numoutlets" : 1
				}

			}
, 			{
				"box" : 				{
					"maxclass" : "newobj",
					"text" : "r amp8",
					"outlettype" : [ "" ],
					"id" : "obj-11",
					"fontname" : "Arial",
					"patching_rect" : [ 615.0, 145.0, 48.0, 20.0 ],
					"fontsize" : 12.0,
					"numinlets" : 0,
					"color" : [ 0.87451, 0.25098, 0.717647, 1.0 ],
					"numoutlets" : 1
				}

			}
, 			{
				"box" : 				{
					"maxclass" : "newobj",
					"text" : "r amp7",
					"outlettype" : [ "" ],
					"id" : "obj-12",
					"fontname" : "Arial",
					"patching_rect" : [ 532.0, 145.0, 48.0, 20.0 ],
					"fontsize" : 12.0,
					"numinlets" : 0,
					"color" : [ 0.87451, 0.25098, 0.717647, 1.0 ],
					"numoutlets" : 1
				}

			}
, 			{
				"box" : 				{
					"maxclass" : "newobj",
					"text" : "r amp6",
					"outlettype" : [ "" ],
					"id" : "obj-13",
					"fontname" : "Arial",
					"patching_rect" : [ 450.0, 145.0, 48.0, 20.0 ],
					"fontsize" : 12.0,
					"numinlets" : 0,
					"color" : [ 0.87451, 0.25098, 0.717647, 1.0 ],
					"numoutlets" : 1
				}

			}
, 			{
				"box" : 				{
					"maxclass" : "newobj",
					"text" : "r amp5",
					"outlettype" : [ "" ],
					"id" : "obj-14",
					"fontname" : "Arial",
					"patching_rect" : [ 369.0, 145.0, 48.0, 20.0 ],
					"fontsize" : 12.0,
					"numinlets" : 0,
					"color" : [ 0.87451, 0.25098, 0.717647, 1.0 ],
					"numoutlets" : 1
				}

			}
, 			{
				"box" : 				{
					"maxclass" : "newobj",
					"text" : "r amp4",
					"outlettype" : [ "" ],
					"id" : "obj-10",
					"fontname" : "Arial",
					"patching_rect" : [ 286.0, 145.0, 48.0, 20.0 ],
					"fontsize" : 12.0,
					"numinlets" : 0,
					"color" : [ 0.87451, 0.25098, 0.717647, 1.0 ],
					"numoutlets" : 1
				}

			}
, 			{
				"box" : 				{
					"maxclass" : "newobj",
					"text" : "r amp3",
					"outlettype" : [ "" ],
					"id" : "obj-9",
					"fontname" : "Arial",
					"patching_rect" : [ 206.0, 145.0, 48.0, 20.0 ],
					"fontsize" : 12.0,
					"numinlets" : 0,
					"color" : [ 0.87451, 0.25098, 0.717647, 1.0 ],
					"numoutlets" : 1
				}

			}
, 			{
				"box" : 				{
					"maxclass" : "newobj",
					"text" : "r amp2",
					"outlettype" : [ "" ],
					"id" : "obj-8",
					"fontname" : "Arial",
					"patching_rect" : [ 125.0, 145.0, 48.0, 20.0 ],
					"fontsize" : 12.0,
					"numinlets" : 0,
					"color" : [ 0.87451, 0.25098, 0.717647, 1.0 ],
					"numoutlets" : 1
				}

			}
, 			{
				"box" : 				{
					"maxclass" : "newobj",
					"text" : "r amp1",
					"outlettype" : [ "" ],
					"id" : "obj-7",
					"fontname" : "Arial",
					"patching_rect" : [ 42.0, 145.0, 48.0, 20.0 ],
					"fontsize" : 12.0,
					"numinlets" : 0,
					"color" : [ 0.87451, 0.25098, 0.717647, 1.0 ],
					"numoutlets" : 1
				}

			}
, 			{
				"box" : 				{
					"maxclass" : "message",
					"text" : "0.58 0.52 0.67 0.63 0.47 0. 0. 0. 0. 0. 0. 0. 0. 0. 0. 0. 0. 0. 0. 0.",
					"outlettype" : [ "" ],
					"id" : "obj-6",
					"fontname" : "Arial",
					"patching_rect" : [ 696.0, 349.0, 431.0, 18.0 ],
					"fontsize" : 12.0,
					"numinlets" : 2,
					"numoutlets" : 1
				}

			}
, 			{
				"box" : 				{
					"maxclass" : "newobj",
					"text" : "zl group 20",
					"outlettype" : [ "", "" ],
					"id" : "obj-5",
					"fontname" : "Arial",
					"patching_rect" : [ 647.0, 315.0, 70.0, 20.0 ],
					"fontsize" : 12.0,
					"numinlets" : 2,
					"numoutlets" : 2
				}

			}
, 			{
				"box" : 				{
					"maxclass" : "message",
					"text" : "getstoredvalue amps1 $1",
					"outlettype" : [ "" ],
					"id" : "obj-173",
					"fontname" : "Arial",
					"patching_rect" : [ 807.0, 508.0, 141.0, 18.0 ],
					"fontsize" : 11.595187,
					"numinlets" : 2,
					"numoutlets" : 1
				}

			}
, 			{
				"box" : 				{
					"maxclass" : "message",
					"varname" : "parciaisam",
					"text" : "read amps.xml 0",
					"outlettype" : [ "" ],
					"id" : "obj-170",
					"fontname" : "Arial",
					"patching_rect" : [ 14.0, 599.0, 1027.0, 18.0 ],
					"fontsize" : 12.0,
					"numinlets" : 2,
					"numoutlets" : 1
				}

			}
, 			{
				"box" : 				{
					"maxclass" : "message",
					"text" : "store $1",
					"outlettype" : [ "" ],
					"id" : "obj-166",
					"fontname" : "Arial",
					"patching_rect" : [ 459.0, 494.0, 54.0, 18.0 ],
					"fontsize" : 12.0,
					"numinlets" : 2,
					"numoutlets" : 1
				}

			}
, 			{
				"box" : 				{
					"maxclass" : "newobj",
					"text" : "zl group 40",
					"outlettype" : [ "", "" ],
					"id" : "obj-161",
					"fontname" : "Arial",
					"patching_rect" : [ 467.0, 462.0, 70.0, 20.0 ],
					"fontsize" : 12.0,
					"numinlets" : 2,
					"numoutlets" : 2
				}

			}
, 			{
				"box" : 				{
					"maxclass" : "newobj",
					"text" : "t b clear zlclear",
					"outlettype" : [ "bang", "clear", "zlclear" ],
					"id" : "obj-158",
					"fontname" : "Arial",
					"patching_rect" : [ 502.0, 315.0, 119.0, 20.0 ],
					"fontsize" : 12.0,
					"numinlets" : 1,
					"numoutlets" : 3
				}

			}
, 			{
				"box" : 				{
					"maxclass" : "button",
					"outlettype" : [ "bang" ],
					"id" : "obj-156",
					"patching_rect" : [ 502.0, 291.5, 18.0, 18.0 ],
					"numinlets" : 1,
					"numoutlets" : 1
				}

			}
, 			{
				"box" : 				{
					"maxclass" : "newobj",
					"text" : "uzi 20 1",
					"outlettype" : [ "bang", "bang", "int" ],
					"id" : "obj-121",
					"fontname" : "Arial",
					"patching_rect" : [ 502.0, 340.0, 53.0, 20.0 ],
					"fontsize" : 12.0,
					"numinlets" : 2,
					"numoutlets" : 3
				}

			}
, 			{
				"box" : 				{
					"maxclass" : "newobj",
					"text" : "zl reg",
					"outlettype" : [ "", "" ],
					"id" : "obj-72",
					"fontname" : "Arial",
					"patching_rect" : [ 626.0, 398.0, 40.0, 20.0 ],
					"fontsize" : 12.0,
					"numinlets" : 2,
					"numoutlets" : 2
				}

			}
, 			{
				"box" : 				{
					"maxclass" : "newobj",
					"text" : "t b i i",
					"outlettype" : [ "bang", "int", "int" ],
					"id" : "obj-63",
					"fontname" : "Arial",
					"patching_rect" : [ 536.0, 369.0, 46.0, 20.0 ],
					"fontsize" : 12.0,
					"numinlets" : 1,
					"numoutlets" : 3
				}

			}
, 			{
				"box" : 				{
					"maxclass" : "newobj",
					"text" : "zl group 2",
					"outlettype" : [ "", "" ],
					"id" : "obj-52",
					"fontname" : "Arial",
					"patching_rect" : [ 545.0, 462.0, 63.0, 20.0 ],
					"fontsize" : 12.0,
					"numinlets" : 2,
					"numoutlets" : 2
				}

			}
, 			{
				"box" : 				{
					"maxclass" : "newobj",
					"text" : "coll amps",
					"outlettype" : [ "", "", "", "" ],
					"id" : "obj-46",
					"fontname" : "Arial",
					"patching_rect" : [ 20.0, 533.0, 61.0, 20.0 ],
					"fontsize" : 12.0,
					"numinlets" : 1,
					"numoutlets" : 4,
					"saved_object_attributes" : 					{
						"embed" : 0
					}

				}

			}
, 			{
				"box" : 				{
					"maxclass" : "newobj",
					"text" : "zl nth",
					"outlettype" : [ "", "" ],
					"id" : "obj-45",
					"fontname" : "Arial",
					"patching_rect" : [ 626.0, 427.0, 39.0, 20.0 ],
					"fontsize" : 12.0,
					"numinlets" : 2,
					"numoutlets" : 2
				}

			}
, 			{
				"box" : 				{
					"maxclass" : "newobj",
					"varname" : "amps1",
					"text" : "pattr amps1 parciaisam",
					"outlettype" : [ "", "", "" ],
					"id" : "obj-44",
					"fontname" : "Arial",
					"patching_rect" : [ 325.0, 533.0, 135.0, 20.0 ],
					"fontsize" : 12.0,
					"numinlets" : 1,
					"numoutlets" : 3,
					"restore" : [ 1, 0.58, 2, 0.52, 3, 0.67, 4, 0.63, 5, 0.47, 6, 0.0, 7, 0.0, 8, 0.0, 9, 0.0, 10, 0.0, 11, 0.0, 12, 0.0, 13, 0.0, 14, 0.0, 15, 0.0, 16, 0.0, 17, 0.0, 18, 0.0, 19, 0.0, 20, 0.0 ],
					"saved_object_attributes" : 					{

					}

				}

			}
, 			{
				"box" : 				{
					"maxclass" : "message",
					"text" : "storagewindow",
					"outlettype" : [ "" ],
					"id" : "obj-42",
					"fontname" : "Arial",
					"patching_rect" : [ 604.0, 494.0, 91.0, 18.0 ],
					"fontsize" : 12.0,
					"numinlets" : 2,
					"numoutlets" : 1
				}

			}
, 			{
				"box" : 				{
					"maxclass" : "message",
					"text" : "clientwindow",
					"outlettype" : [ "" ],
					"id" : "obj-43",
					"fontname" : "Arial",
					"patching_rect" : [ 518.0, 494.0, 79.0, 18.0 ],
					"fontsize" : 12.0,
					"numinlets" : 2,
					"numoutlets" : 1
				}

			}
, 			{
				"box" : 				{
					"maxclass" : "newobj",
					"varname" : "amps",
					"text" : "pattrstorage amps @savemode 0",
					"outlettype" : [ "" ],
					"id" : "obj-41",
					"fontname" : "Arial",
					"patching_rect" : [ 459.0, 533.0, 188.0, 20.0 ],
					"fontsize" : 12.0,
					"numinlets" : 1,
					"numoutlets" : 1,
					"saved_object_attributes" : 					{
						"storage_rect" : [ 365, 44, 816, 172 ],
						"client_rect" : [ 4, 44, 358, 172 ]
					}

				}

			}
 ],
		"lines" : [ 			{
				"patchline" : 				{
					"source" : [ "obj-2", 0 ],
					"destination" : [ "obj-81", 0 ],
					"hidden" : 0,
					"midpoints" : [  ]
				}

			}
, 			{
				"patchline" : 				{
					"source" : [ "obj-158", 1 ],
					"destination" : [ "obj-46", 0 ],
					"hidden" : 0,
					"midpoints" : [ 561.5, 364.0, 29.5, 364.0 ]
				}

			}
, 			{
				"patchline" : 				{
					"source" : [ "obj-52", 0 ],
					"destination" : [ "obj-46", 0 ],
					"hidden" : 0,
					"midpoints" : [ 554.5, 487.0, 29.5, 487.0 ]
				}

			}
, 			{
				"patchline" : 				{
					"source" : [ "obj-43", 0 ],
					"destination" : [ "obj-41", 0 ],
					"hidden" : 0,
					"midpoints" : [ 527.5, 522.5, 468.5, 522.5 ]
				}

			}
, 			{
				"patchline" : 				{
					"source" : [ "obj-42", 0 ],
					"destination" : [ "obj-41", 0 ],
					"hidden" : 0,
					"midpoints" : [ 613.5, 522.5, 468.5, 522.5 ]
				}

			}
, 			{
				"patchline" : 				{
					"source" : [ "obj-166", 0 ],
					"destination" : [ "obj-41", 0 ],
					"hidden" : 0,
					"midpoints" : [ 468.5, 522.5, 468.5, 522.5 ]
				}

			}
, 			{
				"patchline" : 				{
					"source" : [ "obj-173", 0 ],
					"destination" : [ "obj-41", 0 ],
					"hidden" : 0,
					"midpoints" : [ 816.5, 526.0, 468.5, 526.0 ]
				}

			}
, 			{
				"patchline" : 				{
					"source" : [ "obj-41", 0 ],
					"destination" : [ "obj-75", 0 ],
					"hidden" : 0,
					"midpoints" : [  ]
				}

			}
, 			{
				"patchline" : 				{
					"source" : [ "obj-81", 0 ],
					"destination" : [ "obj-173", 0 ],
					"hidden" : 0,
					"midpoints" : [  ]
				}

			}
, 			{
				"patchline" : 				{
					"source" : [ "obj-55", 0 ],
					"destination" : [ "obj-156", 0 ],
					"hidden" : 0,
					"midpoints" : [ 30.5, 92.0, 511.5, 92.0 ]
				}

			}
, 			{
				"patchline" : 				{
					"source" : [ "obj-54", 0 ],
					"destination" : [ "obj-56", 0 ],
					"hidden" : 0,
					"midpoints" : [  ]
				}

			}
, 			{
				"patchline" : 				{
					"source" : [ "obj-54", 1 ],
					"destination" : [ "obj-55", 0 ],
					"hidden" : 0,
					"midpoints" : [  ]
				}

			}
, 			{
				"patchline" : 				{
					"source" : [ "obj-72", 0 ],
					"destination" : [ "obj-45", 0 ],
					"hidden" : 0,
					"midpoints" : [  ]
				}

			}
, 			{
				"patchline" : 				{
					"source" : [ "obj-45", 0 ],
					"destination" : [ "obj-52", 0 ],
					"hidden" : 0,
					"midpoints" : [ 635.5, 457.0, 554.5, 457.0 ]
				}

			}
, 			{
				"patchline" : 				{
					"source" : [ "obj-63", 0 ],
					"destination" : [ "obj-72", 0 ],
					"hidden" : 0,
					"midpoints" : [ 545.5, 395.0, 635.5, 395.0 ]
				}

			}
, 			{
				"patchline" : 				{
					"source" : [ "obj-63", 1 ],
					"destination" : [ "obj-45", 1 ],
					"hidden" : 0,
					"midpoints" : [ 559.0, 422.5, 655.5, 422.5 ]
				}

			}
, 			{
				"patchline" : 				{
					"source" : [ "obj-63", 2 ],
					"destination" : [ "obj-52", 0 ],
					"hidden" : 0,
					"midpoints" : [ 572.5, 426.0, 554.5, 426.0 ]
				}

			}
, 			{
				"patchline" : 				{
					"source" : [ "obj-65", 0 ],
					"destination" : [ "obj-63", 0 ],
					"hidden" : 0,
					"midpoints" : [  ]
				}

			}
, 			{
				"patchline" : 				{
					"source" : [ "obj-156", 0 ],
					"destination" : [ "obj-158", 0 ],
					"hidden" : 0,
					"midpoints" : [  ]
				}

			}
, 			{
				"patchline" : 				{
					"source" : [ "obj-158", 2 ],
					"destination" : [ "obj-52", 0 ],
					"hidden" : 0,
					"midpoints" : [ 611.5, 403.0, 554.5, 403.0 ]
				}

			}
, 			{
				"patchline" : 				{
					"source" : [ "obj-75", 1 ],
					"destination" : [ "obj-170", 1 ],
					"hidden" : 0,
					"midpoints" : [ 482.0, 593.5, 1031.5, 593.5 ]
				}

			}
, 			{
				"patchline" : 				{
					"source" : [ "obj-75", 0 ],
					"destination" : [ "obj-170", 0 ],
					"hidden" : 0,
					"midpoints" : [ 468.5, 593.5, 23.5, 593.5 ]
				}

			}
, 			{
				"patchline" : 				{
					"source" : [ "obj-170", 0 ],
					"destination" : [ "obj-91", 0 ],
					"hidden" : 0,
					"midpoints" : [ 23.5, 622.5, 23.5, 622.5 ]
				}

			}
, 			{
				"patchline" : 				{
					"source" : [ "obj-170", 0 ],
					"destination" : [ "obj-94", 0 ],
					"hidden" : 0,
					"midpoints" : [ 23.5, 622.5, 85.5, 622.5 ]
				}

			}
, 			{
				"patchline" : 				{
					"source" : [ "obj-170", 0 ],
					"destination" : [ "obj-96", 0 ],
					"hidden" : 0,
					"midpoints" : [ 23.5, 622.5, 135.5, 622.5 ]
				}

			}
, 			{
				"patchline" : 				{
					"source" : [ "obj-170", 0 ],
					"destination" : [ "obj-95", 0 ],
					"hidden" : 0,
					"midpoints" : [ 23.5, 622.5, 186.5, 622.5 ]
				}

			}
, 			{
				"patchline" : 				{
					"source" : [ "obj-170", 0 ],
					"destination" : [ "obj-100", 0 ],
					"hidden" : 0,
					"midpoints" : [ 23.5, 622.5, 235.5, 622.5 ]
				}

			}
, 			{
				"patchline" : 				{
					"source" : [ "obj-170", 0 ],
					"destination" : [ "obj-99", 0 ],
					"hidden" : 0,
					"midpoints" : [ 23.5, 622.5, 286.5, 622.5 ]
				}

			}
, 			{
				"patchline" : 				{
					"source" : [ "obj-170", 0 ],
					"destination" : [ "obj-98", 0 ],
					"hidden" : 0,
					"midpoints" : [ 23.5, 622.5, 336.5, 622.5 ]
				}

			}
, 			{
				"patchline" : 				{
					"source" : [ "obj-170", 0 ],
					"destination" : [ "obj-97", 0 ],
					"hidden" : 0,
					"midpoints" : [ 23.5, 622.5, 387.5, 622.5 ]
				}

			}
, 			{
				"patchline" : 				{
					"source" : [ "obj-170", 0 ],
					"destination" : [ "obj-108", 0 ],
					"hidden" : 0,
					"midpoints" : [ 23.5, 622.5, 444.5, 622.5 ]
				}

			}
, 			{
				"patchline" : 				{
					"source" : [ "obj-170", 0 ],
					"destination" : [ "obj-107", 0 ],
					"hidden" : 0,
					"midpoints" : [ 23.5, 622.5, 503.5, 622.5 ]
				}

			}
, 			{
				"patchline" : 				{
					"source" : [ "obj-170", 0 ],
					"destination" : [ "obj-106", 0 ],
					"hidden" : 0,
					"midpoints" : [ 23.5, 622.5, 561.5, 622.5 ]
				}

			}
, 			{
				"patchline" : 				{
					"source" : [ "obj-170", 0 ],
					"destination" : [ "obj-105", 0 ],
					"hidden" : 0,
					"midpoints" : [ 23.5, 622.5, 619.5, 622.5 ]
				}

			}
, 			{
				"patchline" : 				{
					"source" : [ "obj-170", 0 ],
					"destination" : [ "obj-104", 0 ],
					"hidden" : 0,
					"midpoints" : [ 23.5, 622.5, 678.5, 622.5 ]
				}

			}
, 			{
				"patchline" : 				{
					"source" : [ "obj-170", 0 ],
					"destination" : [ "obj-103", 0 ],
					"hidden" : 0,
					"midpoints" : [ 23.5, 622.5, 733.5, 622.5 ]
				}

			}
, 			{
				"patchline" : 				{
					"source" : [ "obj-170", 0 ],
					"destination" : [ "obj-102", 0 ],
					"hidden" : 0,
					"midpoints" : [ 23.5, 622.5, 787.5, 622.5 ]
				}

			}
, 			{
				"patchline" : 				{
					"source" : [ "obj-170", 0 ],
					"destination" : [ "obj-101", 0 ],
					"hidden" : 0,
					"midpoints" : [ 23.5, 622.5, 843.5, 622.5 ]
				}

			}
, 			{
				"patchline" : 				{
					"source" : [ "obj-170", 0 ],
					"destination" : [ "obj-110", 0 ],
					"hidden" : 0,
					"midpoints" : [ 23.5, 622.5, 900.5, 622.5 ]
				}

			}
, 			{
				"patchline" : 				{
					"source" : [ "obj-170", 0 ],
					"destination" : [ "obj-109", 0 ],
					"hidden" : 0,
					"midpoints" : [ 23.5, 622.5, 956.5, 622.5 ]
				}

			}
, 			{
				"patchline" : 				{
					"source" : [ "obj-170", 0 ],
					"destination" : [ "obj-111", 0 ],
					"hidden" : 0,
					"midpoints" : [ 23.5, 622.0, 1013.5, 622.0 ]
				}

			}
, 			{
				"patchline" : 				{
					"source" : [ "obj-158", 0 ],
					"destination" : [ "obj-121", 0 ],
					"hidden" : 0,
					"midpoints" : [  ]
				}

			}
, 			{
				"patchline" : 				{
					"source" : [ "obj-121", 2 ],
					"destination" : [ "obj-63", 0 ],
					"hidden" : 0,
					"midpoints" : [  ]
				}

			}
, 			{
				"patchline" : 				{
					"source" : [ "obj-158", 2 ],
					"destination" : [ "obj-161", 0 ],
					"hidden" : 0,
					"midpoints" : [ 611.5, 400.0, 476.5, 400.0 ]
				}

			}
, 			{
				"patchline" : 				{
					"source" : [ "obj-63", 2 ],
					"destination" : [ "obj-161", 0 ],
					"hidden" : 0,
					"midpoints" : [ 572.5, 435.0, 476.5, 435.0 ]
				}

			}
, 			{
				"patchline" : 				{
					"source" : [ "obj-45", 0 ],
					"destination" : [ "obj-161", 0 ],
					"hidden" : 0,
					"midpoints" : [ 635.5, 454.0, 476.5, 454.0 ]
				}

			}
, 			{
				"patchline" : 				{
					"source" : [ "obj-5", 0 ],
					"destination" : [ "obj-6", 1 ],
					"hidden" : 0,
					"midpoints" : [ 656.5, 338.5, 1117.5, 338.5 ]
				}

			}
, 			{
				"patchline" : 				{
					"source" : [ "obj-5", 0 ],
					"destination" : [ "obj-72", 1 ],
					"hidden" : 0,
					"midpoints" : [  ]
				}

			}
, 			{
				"patchline" : 				{
					"source" : [ "obj-27", 0 ],
					"destination" : [ "obj-5", 0 ],
					"hidden" : 0,
					"midpoints" : [ 37.5, 262.0, 656.5, 262.0 ]
				}

			}
, 			{
				"patchline" : 				{
					"source" : [ "obj-28", 0 ],
					"destination" : [ "obj-5", 0 ],
					"hidden" : 0,
					"midpoints" : [ 120.5, 262.0, 656.5, 262.0 ]
				}

			}
, 			{
				"patchline" : 				{
					"source" : [ "obj-29", 0 ],
					"destination" : [ "obj-5", 0 ],
					"hidden" : 0,
					"midpoints" : [ 201.5, 262.0, 656.5, 262.0 ]
				}

			}
, 			{
				"patchline" : 				{
					"source" : [ "obj-32", 0 ],
					"destination" : [ "obj-5", 0 ],
					"hidden" : 0,
					"midpoints" : [ 281.5, 262.0, 656.5, 262.0 ]
				}

			}
, 			{
				"patchline" : 				{
					"source" : [ "obj-31", 0 ],
					"destination" : [ "obj-5", 0 ],
					"hidden" : 0,
					"midpoints" : [ 364.5, 262.0, 656.5, 262.0 ]
				}

			}
, 			{
				"patchline" : 				{
					"source" : [ "obj-30", 0 ],
					"destination" : [ "obj-5", 0 ],
					"hidden" : 0,
					"midpoints" : [ 445.5, 262.0, 656.5, 262.0 ]
				}

			}
, 			{
				"patchline" : 				{
					"source" : [ "obj-35", 0 ],
					"destination" : [ "obj-5", 0 ],
					"hidden" : 0,
					"midpoints" : [ 527.5, 262.0, 656.5, 262.0 ]
				}

			}
, 			{
				"patchline" : 				{
					"source" : [ "obj-34", 0 ],
					"destination" : [ "obj-5", 0 ],
					"hidden" : 0,
					"midpoints" : [ 610.5, 262.0, 656.5, 262.0 ]
				}

			}
, 			{
				"patchline" : 				{
					"source" : [ "obj-33", 0 ],
					"destination" : [ "obj-5", 0 ],
					"hidden" : 0,
					"midpoints" : [ 691.5, 262.0, 656.5, 262.0 ]
				}

			}
, 			{
				"patchline" : 				{
					"source" : [ "obj-38", 0 ],
					"destination" : [ "obj-5", 0 ],
					"hidden" : 0,
					"midpoints" : [ 769.5, 262.0, 656.5, 262.0 ]
				}

			}
, 			{
				"patchline" : 				{
					"source" : [ "obj-37", 0 ],
					"destination" : [ "obj-5", 0 ],
					"hidden" : 0,
					"midpoints" : [ 857.5, 262.0, 656.5, 262.0 ]
				}

			}
, 			{
				"patchline" : 				{
					"source" : [ "obj-36", 0 ],
					"destination" : [ "obj-5", 0 ],
					"hidden" : 0,
					"midpoints" : [ 944.5, 262.0, 656.5, 262.0 ]
				}

			}
, 			{
				"patchline" : 				{
					"source" : [ "obj-51", 0 ],
					"destination" : [ "obj-5", 0 ],
					"hidden" : 0,
					"midpoints" : [ 213.5, 285.0, 656.5, 285.0 ]
				}

			}
, 			{
				"patchline" : 				{
					"source" : [ "obj-50", 0 ],
					"destination" : [ "obj-5", 0 ],
					"hidden" : 0,
					"midpoints" : [ 302.5, 278.0, 656.5, 278.0 ]
				}

			}
, 			{
				"patchline" : 				{
					"source" : [ "obj-49", 0 ],
					"destination" : [ "obj-5", 0 ],
					"hidden" : 0,
					"midpoints" : [ 395.5, 289.0, 656.5, 289.0 ]
				}

			}
, 			{
				"patchline" : 				{
					"source" : [ "obj-48", 0 ],
					"destination" : [ "obj-5", 0 ],
					"hidden" : 0,
					"midpoints" : [ 491.5, 289.0, 656.5, 289.0 ]
				}

			}
, 			{
				"patchline" : 				{
					"source" : [ "obj-47", 0 ],
					"destination" : [ "obj-5", 0 ],
					"hidden" : 0,
					"midpoints" : [ 587.5, 289.0, 656.5, 289.0 ]
				}

			}
, 			{
				"patchline" : 				{
					"source" : [ "obj-40", 0 ],
					"destination" : [ "obj-5", 0 ],
					"hidden" : 0,
					"midpoints" : [ 681.5, 295.0, 656.5, 295.0 ]
				}

			}
, 			{
				"patchline" : 				{
					"source" : [ "obj-39", 0 ],
					"destination" : [ "obj-5", 0 ],
					"hidden" : 0,
					"midpoints" : [ 775.5, 280.0, 656.5, 280.0 ]
				}

			}
, 			{
				"patchline" : 				{
					"source" : [ "obj-54", 2 ],
					"destination" : [ "obj-53", 0 ],
					"hidden" : 0,
					"midpoints" : [ 43.5, 64.0, 463.5, 64.0 ]
				}

			}
, 			{
				"patchline" : 				{
					"source" : [ "obj-76", 0 ],
					"destination" : [ "obj-5", 0 ],
					"hidden" : 0,
					"midpoints" : [ 864.5, 301.5, 656.5, 301.5 ]
				}

			}
, 			{
				"patchline" : 				{
					"source" : [ "obj-53", 19 ],
					"destination" : [ "obj-27", 0 ],
					"hidden" : 0,
					"midpoints" : [ 720.0, 120.5, 37.5, 120.5 ]
				}

			}
, 			{
				"patchline" : 				{
					"source" : [ "obj-53", 18 ],
					"destination" : [ "obj-28", 0 ],
					"hidden" : 0,
					"midpoints" : [ 706.5, 120.5, 120.5, 120.5 ]
				}

			}
, 			{
				"patchline" : 				{
					"source" : [ "obj-53", 17 ],
					"destination" : [ "obj-29", 0 ],
					"hidden" : 0,
					"midpoints" : [ 693.0, 120.5, 201.5, 120.5 ]
				}

			}
, 			{
				"patchline" : 				{
					"source" : [ "obj-53", 16 ],
					"destination" : [ "obj-32", 0 ],
					"hidden" : 0,
					"midpoints" : [ 679.5, 120.5, 281.5, 120.5 ]
				}

			}
, 			{
				"patchline" : 				{
					"source" : [ "obj-53", 15 ],
					"destination" : [ "obj-31", 0 ],
					"hidden" : 0,
					"midpoints" : [ 666.0, 120.5, 364.5, 120.5 ]
				}

			}
, 			{
				"patchline" : 				{
					"source" : [ "obj-53", 14 ],
					"destination" : [ "obj-30", 0 ],
					"hidden" : 0,
					"midpoints" : [ 652.5, 120.5, 445.5, 120.5 ]
				}

			}
, 			{
				"patchline" : 				{
					"source" : [ "obj-53", 13 ],
					"destination" : [ "obj-35", 0 ],
					"hidden" : 0,
					"midpoints" : [ 639.0, 120.5, 527.5, 120.5 ]
				}

			}
, 			{
				"patchline" : 				{
					"source" : [ "obj-53", 12 ],
					"destination" : [ "obj-34", 0 ],
					"hidden" : 0,
					"midpoints" : [ 625.5, 120.5, 610.5, 120.5 ]
				}

			}
, 			{
				"patchline" : 				{
					"source" : [ "obj-53", 11 ],
					"destination" : [ "obj-33", 0 ],
					"hidden" : 0,
					"midpoints" : [ 612.0, 120.5, 691.5, 120.5 ]
				}

			}
, 			{
				"patchline" : 				{
					"source" : [ "obj-53", 10 ],
					"destination" : [ "obj-38", 0 ],
					"hidden" : 0,
					"midpoints" : [ 598.5, 120.5, 769.5, 120.5 ]
				}

			}
, 			{
				"patchline" : 				{
					"source" : [ "obj-53", 9 ],
					"destination" : [ "obj-37", 0 ],
					"hidden" : 0,
					"midpoints" : [ 585.0, 120.5, 857.5, 120.5 ]
				}

			}
, 			{
				"patchline" : 				{
					"source" : [ "obj-53", 8 ],
					"destination" : [ "obj-36", 0 ],
					"hidden" : 0,
					"midpoints" : [ 571.5, 120.5, 944.5, 120.5 ]
				}

			}
, 			{
				"patchline" : 				{
					"source" : [ "obj-53", 7 ],
					"destination" : [ "obj-51", 0 ],
					"hidden" : 0,
					"midpoints" : [ 558.0, 147.5, 213.5, 147.5 ]
				}

			}
, 			{
				"patchline" : 				{
					"source" : [ "obj-53", 6 ],
					"destination" : [ "obj-50", 0 ],
					"hidden" : 0,
					"midpoints" : [ 544.5, 147.5, 302.5, 147.5 ]
				}

			}
, 			{
				"patchline" : 				{
					"source" : [ "obj-53", 5 ],
					"destination" : [ "obj-49", 0 ],
					"hidden" : 0,
					"midpoints" : [ 531.0, 147.5, 395.5, 147.5 ]
				}

			}
, 			{
				"patchline" : 				{
					"source" : [ "obj-53", 4 ],
					"destination" : [ "obj-48", 0 ],
					"hidden" : 0,
					"midpoints" : [ 517.5, 147.5, 491.5, 147.5 ]
				}

			}
, 			{
				"patchline" : 				{
					"source" : [ "obj-53", 3 ],
					"destination" : [ "obj-47", 0 ],
					"hidden" : 0,
					"midpoints" : [ 504.0, 147.5, 587.5, 147.5 ]
				}

			}
, 			{
				"patchline" : 				{
					"source" : [ "obj-53", 2 ],
					"destination" : [ "obj-40", 0 ],
					"hidden" : 0,
					"midpoints" : [ 490.5, 147.5, 681.5, 147.5 ]
				}

			}
, 			{
				"patchline" : 				{
					"source" : [ "obj-53", 1 ],
					"destination" : [ "obj-39", 0 ],
					"hidden" : 0,
					"midpoints" : [ 477.0, 147.5, 775.5, 147.5 ]
				}

			}
, 			{
				"patchline" : 				{
					"source" : [ "obj-53", 0 ],
					"destination" : [ "obj-76", 0 ],
					"hidden" : 0,
					"midpoints" : [ 463.5, 147.0, 864.5, 147.0 ]
				}

			}
, 			{
				"patchline" : 				{
					"source" : [ "obj-170", 0 ],
					"destination" : [ "obj-79", 0 ],
					"hidden" : 0,
					"midpoints" : [ 23.5, 629.5, 1070.5, 629.5 ]
				}

			}
, 			{
				"patchline" : 				{
					"source" : [ "obj-56", 0 ],
					"destination" : [ "obj-62", 0 ],
					"hidden" : 0,
					"midpoints" : [  ]
				}

			}
, 			{
				"patchline" : 				{
					"source" : [ "obj-62", 1 ],
					"destination" : [ "obj-166", 0 ],
					"hidden" : 0,
					"midpoints" : [ 30.0, 329.0, 468.5, 329.0 ]
				}

			}
, 			{
				"patchline" : 				{
					"source" : [ "obj-91", 0 ],
					"destination" : [ "obj-124", 0 ],
					"hidden" : 0,
					"midpoints" : [  ]
				}

			}
, 			{
				"patchline" : 				{
					"source" : [ "obj-94", 0 ],
					"destination" : [ "obj-123", 0 ],
					"hidden" : 0,
					"midpoints" : [  ]
				}

			}
, 			{
				"patchline" : 				{
					"source" : [ "obj-96", 0 ],
					"destination" : [ "obj-122", 0 ],
					"hidden" : 0,
					"midpoints" : [  ]
				}

			}
, 			{
				"patchline" : 				{
					"source" : [ "obj-95", 0 ],
					"destination" : [ "obj-120", 0 ],
					"hidden" : 0,
					"midpoints" : [  ]
				}

			}
, 			{
				"patchline" : 				{
					"source" : [ "obj-100", 0 ],
					"destination" : [ "obj-119", 0 ],
					"hidden" : 0,
					"midpoints" : [  ]
				}

			}
, 			{
				"patchline" : 				{
					"source" : [ "obj-99", 0 ],
					"destination" : [ "obj-118", 0 ],
					"hidden" : 0,
					"midpoints" : [  ]
				}

			}
, 			{
				"patchline" : 				{
					"source" : [ "obj-98", 0 ],
					"destination" : [ "obj-117", 0 ],
					"hidden" : 0,
					"midpoints" : [  ]
				}

			}
, 			{
				"patchline" : 				{
					"source" : [ "obj-97", 0 ],
					"destination" : [ "obj-116", 0 ],
					"hidden" : 0,
					"midpoints" : [  ]
				}

			}
, 			{
				"patchline" : 				{
					"source" : [ "obj-108", 0 ],
					"destination" : [ "obj-115", 0 ],
					"hidden" : 0,
					"midpoints" : [  ]
				}

			}
, 			{
				"patchline" : 				{
					"source" : [ "obj-106", 0 ],
					"destination" : [ "obj-113", 0 ],
					"hidden" : 0,
					"midpoints" : [  ]
				}

			}
, 			{
				"patchline" : 				{
					"source" : [ "obj-105", 0 ],
					"destination" : [ "obj-112", 0 ],
					"hidden" : 0,
					"midpoints" : [  ]
				}

			}
, 			{
				"patchline" : 				{
					"source" : [ "obj-104", 0 ],
					"destination" : [ "obj-131", 0 ],
					"hidden" : 0,
					"midpoints" : [  ]
				}

			}
, 			{
				"patchline" : 				{
					"source" : [ "obj-103", 0 ],
					"destination" : [ "obj-130", 0 ],
					"hidden" : 0,
					"midpoints" : [  ]
				}

			}
, 			{
				"patchline" : 				{
					"source" : [ "obj-102", 0 ],
					"destination" : [ "obj-129", 0 ],
					"hidden" : 0,
					"midpoints" : [  ]
				}

			}
, 			{
				"patchline" : 				{
					"source" : [ "obj-101", 0 ],
					"destination" : [ "obj-128", 0 ],
					"hidden" : 0,
					"midpoints" : [  ]
				}

			}
, 			{
				"patchline" : 				{
					"source" : [ "obj-110", 0 ],
					"destination" : [ "obj-127", 0 ],
					"hidden" : 0,
					"midpoints" : [  ]
				}

			}
, 			{
				"patchline" : 				{
					"source" : [ "obj-109", 0 ],
					"destination" : [ "obj-126", 0 ],
					"hidden" : 0,
					"midpoints" : [  ]
				}

			}
, 			{
				"patchline" : 				{
					"source" : [ "obj-111", 0 ],
					"destination" : [ "obj-125", 0 ],
					"hidden" : 0,
					"midpoints" : [  ]
				}

			}
, 			{
				"patchline" : 				{
					"source" : [ "obj-79", 0 ],
					"destination" : [ "obj-78", 0 ],
					"hidden" : 0,
					"midpoints" : [  ]
				}

			}
, 			{
				"patchline" : 				{
					"source" : [ "obj-107", 0 ],
					"destination" : [ "obj-114", 0 ],
					"hidden" : 0,
					"midpoints" : [  ]
				}

			}
, 			{
				"patchline" : 				{
					"source" : [ "obj-8", 0 ],
					"destination" : [ "obj-28", 1 ],
					"hidden" : 0,
					"midpoints" : [  ]
				}

			}
, 			{
				"patchline" : 				{
					"source" : [ "obj-7", 0 ],
					"destination" : [ "obj-27", 1 ],
					"hidden" : 0,
					"midpoints" : [  ]
				}

			}
, 			{
				"patchline" : 				{
					"source" : [ "obj-7", 0 ],
					"destination" : [ "obj-57", 0 ],
					"hidden" : 0,
					"midpoints" : [  ]
				}

			}
, 			{
				"patchline" : 				{
					"source" : [ "obj-9", 0 ],
					"destination" : [ "obj-29", 1 ],
					"hidden" : 0,
					"midpoints" : [  ]
				}

			}
, 			{
				"patchline" : 				{
					"source" : [ "obj-10", 0 ],
					"destination" : [ "obj-32", 1 ],
					"hidden" : 0,
					"midpoints" : [  ]
				}

			}
, 			{
				"patchline" : 				{
					"source" : [ "obj-14", 0 ],
					"destination" : [ "obj-31", 1 ],
					"hidden" : 0,
					"midpoints" : [  ]
				}

			}
, 			{
				"patchline" : 				{
					"source" : [ "obj-13", 0 ],
					"destination" : [ "obj-30", 1 ],
					"hidden" : 0,
					"midpoints" : [  ]
				}

			}
, 			{
				"patchline" : 				{
					"source" : [ "obj-12", 0 ],
					"destination" : [ "obj-35", 1 ],
					"hidden" : 0,
					"midpoints" : [  ]
				}

			}
, 			{
				"patchline" : 				{
					"source" : [ "obj-11", 0 ],
					"destination" : [ "obj-34", 1 ],
					"hidden" : 0,
					"midpoints" : [  ]
				}

			}
, 			{
				"patchline" : 				{
					"source" : [ "obj-18", 0 ],
					"destination" : [ "obj-33", 1 ],
					"hidden" : 0,
					"midpoints" : [  ]
				}

			}
, 			{
				"patchline" : 				{
					"source" : [ "obj-17", 0 ],
					"destination" : [ "obj-38", 1 ],
					"hidden" : 0,
					"midpoints" : [  ]
				}

			}
, 			{
				"patchline" : 				{
					"source" : [ "obj-16", 0 ],
					"destination" : [ "obj-37", 1 ],
					"hidden" : 0,
					"midpoints" : [  ]
				}

			}
, 			{
				"patchline" : 				{
					"source" : [ "obj-15", 0 ],
					"destination" : [ "obj-36", 1 ],
					"hidden" : 0,
					"midpoints" : [  ]
				}

			}
, 			{
				"patchline" : 				{
					"source" : [ "obj-77", 0 ],
					"destination" : [ "obj-76", 1 ],
					"hidden" : 0,
					"midpoints" : [  ]
				}

			}
, 			{
				"patchline" : 				{
					"source" : [ "obj-20", 0 ],
					"destination" : [ "obj-39", 1 ],
					"hidden" : 0,
					"midpoints" : [  ]
				}

			}
, 			{
				"patchline" : 				{
					"source" : [ "obj-21", 0 ],
					"destination" : [ "obj-40", 1 ],
					"hidden" : 0,
					"midpoints" : [  ]
				}

			}
, 			{
				"patchline" : 				{
					"source" : [ "obj-22", 0 ],
					"destination" : [ "obj-47", 1 ],
					"hidden" : 0,
					"midpoints" : [  ]
				}

			}
, 			{
				"patchline" : 				{
					"source" : [ "obj-23", 0 ],
					"destination" : [ "obj-48", 1 ],
					"hidden" : 0,
					"midpoints" : [  ]
				}

			}
, 			{
				"patchline" : 				{
					"source" : [ "obj-24", 0 ],
					"destination" : [ "obj-49", 1 ],
					"hidden" : 0,
					"midpoints" : [  ]
				}

			}
, 			{
				"patchline" : 				{
					"source" : [ "obj-25", 0 ],
					"destination" : [ "obj-50", 1 ],
					"hidden" : 0,
					"midpoints" : [  ]
				}

			}
, 			{
				"patchline" : 				{
					"source" : [ "obj-26", 0 ],
					"destination" : [ "obj-51", 1 ],
					"hidden" : 0,
					"midpoints" : [  ]
				}

			}
, 			{
				"patchline" : 				{
					"source" : [ "obj-1", 0 ],
					"destination" : [ "obj-54", 0 ],
					"hidden" : 0,
					"midpoints" : [  ]
				}

			}
, 			{
				"patchline" : 				{
					"source" : [ "obj-161", 0 ],
					"destination" : [ "obj-44", 0 ],
					"hidden" : 0,
					"midpoints" : [ 476.5, 490.5, 334.5, 490.5 ]
				}

			}
 ]
	}

}
